<mxfile host="65bd71144e">
    <diagram id="zwOXVzT6ncF1zYuOJaDx" name="Page-1">
        <mxGraphModel dx="1573" dy="1464" grid="1" gridSize="10" guides="1" tooltips="1" connect="1" arrows="1" fold="1" page="1" pageScale="1" pageWidth="1400" pageHeight="850" background="#FFFFFF" math="0" shadow="1">
            <root>
                <mxCell id="0"/>
                <mxCell id="1" parent="0"/>
                <mxCell id="12" value="" style="edgeStyle=none;exitX=1;exitY=0.5;exitDx=0;exitDy=0;entryX=0;entryY=0;entryDx=0;entryDy=0;fontSize=35;fontColor=#000000;rounded=1;labelBackgroundColor=none;labelBorderColor=none;strokeColor=#000000;strokeWidth=3;sketch=1;curveFitting=1;jiggle=2;" edge="1" parent="1" source="7" target="11">
                    <mxGeometry relative="1" as="geometry"/>
                </mxCell>
                <mxCell id="7" value="CSV" style="rounded=1;labelBackgroundColor=none;labelBorderColor=none;fontSize=35;fontColor=#000000;fillColor=none;whiteSpace=wrap;strokeColor=#000000;strokeWidth=3;sketch=1;curveFitting=1;jiggle=2;" vertex="1" parent="1">
                    <mxGeometry x="60" y="220" width="140" height="60" as="geometry"/>
                </mxCell>
                <mxCell id="13" value="" style="edgeStyle=none;exitX=1;exitY=0.5;exitDx=0;exitDy=0;entryX=0;entryY=0.5;entryDx=0;entryDy=0;fontSize=35;fontColor=#000000;rounded=1;labelBackgroundColor=none;labelBorderColor=none;strokeColor=#000000;strokeWidth=3;sketch=1;curveFitting=1;jiggle=2;" edge="1" parent="1" source="8" target="11">
                    <mxGeometry relative="1" as="geometry"/>
                </mxCell>
                <mxCell id="8" value="Parquet" style="rounded=1;labelBackgroundColor=none;labelBorderColor=none;fontSize=35;fontColor=#000000;fillColor=none;whiteSpace=wrap;strokeColor=#000000;strokeWidth=3;sketch=1;curveFitting=1;jiggle=2;" vertex="1" parent="1">
                    <mxGeometry x="60" y="320" width="140" height="60" as="geometry"/>
                </mxCell>
                <mxCell id="14" value="" style="edgeStyle=none;exitX=1;exitY=0.5;exitDx=0;exitDy=0;entryX=0;entryY=1;entryDx=0;entryDy=0;fontSize=35;fontColor=#000000;rounded=1;labelBackgroundColor=none;labelBorderColor=none;strokeColor=#000000;strokeWidth=3;sketch=1;curveFitting=1;jiggle=2;" edge="1" parent="1" source="10" target="11">
                    <mxGeometry relative="1" as="geometry"/>
                </mxCell>
                <mxCell id="10" value="Delta Table" style="rounded=1;whiteSpace=wrap;labelBackgroundColor=none;labelBorderColor=none;fontSize=35;fontColor=#000000;fillColor=none;strokeColor=#000000;strokeWidth=3;sketch=1;curveFitting=1;jiggle=2;" vertex="1" parent="1">
                    <mxGeometry x="60" y="420" width="140" height="100" as="geometry"/>
                </mxCell>
                <mxCell id="17" value="" style="edgeStyle=none;exitX=1;exitY=0.5;exitDx=0;exitDy=0;entryX=0;entryY=0.5;entryDx=0;entryDy=0;fontSize=35;fontColor=#000000;rounded=1;labelBackgroundColor=none;labelBorderColor=none;strokeColor=#000000;strokeWidth=3;sketch=1;curveFitting=1;jiggle=2;" edge="1" parent="1" source="11">
                    <mxGeometry relative="1" as="geometry">
                        <mxPoint x="470" y="350" as="targetPoint"/>
                    </mxGeometry>
                </mxCell>
                <mxCell id="11" value="Factory Pattern" style="rounded=1;labelBackgroundColor=none;labelBorderColor=none;fontSize=35;fontColor=#000000;fillColor=none;whiteSpace=wrap;strokeColor=#000000;strokeWidth=3;sketch=1;curveFitting=1;jiggle=2;" vertex="1" parent="1">
                    <mxGeometry x="280" y="300" width="140" height="100" as="geometry"/>
                </mxCell>
                <mxCell id="23" value="" style="edgeStyle=elbowEdgeStyle;elbow=horizontal;endArrow=classic;curved=0;rounded=1;endSize=8;startSize=8;fontSize=35;fontColor=#000000;labelBackgroundColor=none;labelBorderColor=none;strokeColor=#000000;strokeWidth=3;sketch=1;curveFitting=1;jiggle=2;" edge="1" parent="1">
                    <mxGeometry width="50" height="50" relative="1" as="geometry">
                        <mxPoint x="780" y="350" as="sourcePoint"/>
                        <mxPoint x="880" y="290" as="targetPoint"/>
                        <Array as="points">
                            <mxPoint x="810" y="330"/>
                        </Array>
                    </mxGeometry>
                </mxCell>
                <mxCell id="24" value="" style="edgeStyle=elbowEdgeStyle;elbow=horizontal;endArrow=classic;curved=0;rounded=1;endSize=8;startSize=8;fontSize=35;fontColor=#000000;labelBackgroundColor=none;labelBorderColor=none;strokeColor=#000000;strokeWidth=3;exitX=1;exitY=0.5;exitDx=0;exitDy=0;sketch=1;curveFitting=1;jiggle=2;" edge="1" parent="1" source="37">
                    <mxGeometry width="50" height="50" relative="1" as="geometry">
                        <mxPoint x="786.83" y="350" as="sourcePoint"/>
                        <mxPoint x="880" y="410" as="targetPoint"/>
                        <Array as="points">
                            <mxPoint x="810" y="370"/>
                        </Array>
                    </mxGeometry>
                </mxCell>
                <mxCell id="33" value="Data Lake" style="rounded=1;labelBackgroundColor=none;labelBorderColor=none;fontSize=35;fontColor=#000000;fillColor=none;whiteSpace=wrap;strokeColor=#000000;strokeWidth=3;sketch=1;curveFitting=1;jiggle=2;" vertex="1" parent="1">
                    <mxGeometry x="880" y="260" width="170" height="60" as="geometry"/>
                </mxCell>
                <mxCell id="34" value="Delta Table" style="rounded=1;labelBackgroundColor=none;labelBorderColor=none;fontSize=35;fontColor=#000000;fillColor=none;whiteSpace=wrap;strokeColor=#000000;strokeWidth=3;sketch=1;curveFitting=1;jiggle=2;" vertex="1" parent="1">
                    <mxGeometry x="880" y="380" width="180" height="60" as="geometry"/>
                </mxCell>
                <mxCell id="37" value="" style="shape=image;verticalLabelPosition=bottom;labelBackgroundColor=default;verticalAlign=top;aspect=fixed;imageAspect=0;image=data:image/jpeg,/9j/4AAQSkZJRgABAQEAkACQAAD/4gIoSUNDX1BST0ZJTEUAAQEAAAIYAAAAAAQwAABtbnRyUkdCIFhZWiAAAAAAAAAAAAAAAABhY3NwAAAAAAAAAAAAAAAAAAAAAAAAAAAAAAAAAAAAAQAA9tYAAQAAAADTLQAAAAAAAAAAAAAAAAAAAAAAAAAAAAAAAAAAAAAAAAAAAAAAAAAAAAAAAAAAAAAAAAAAAAlkZXNjAAAA8AAAAHRyWFlaAAABZAAAABRnWFlaAAABeAAAABRiWFlaAAABjAAAABRyVFJDAAABoAAAAChnVFJDAAABoAAAAChiVFJDAAABoAAAACh3dHB0AAAByAAAABRjcHJ0AAAB3AAAADxtbHVjAAAAAAAAAAEAAAAMZW5VUwAAAFgAAAAcAHMAUgBHAEIAAAAAAAAAAAAAAAAAAAAAAAAAAAAAAAAAAAAAAAAAAAAAAAAAAAAAAAAAAAAAAAAAAAAAAAAAAAAAAAAAAAAAAAAAAAAAAAAAAAAAAAAAAFhZWiAAAAAAAABvogAAOPUAAAOQWFlaIAAAAAAAAGKZAAC3hQAAGNpYWVogAAAAAAAAJKAAAA+EAAC2z3BhcmEAAAAAAAQAAAACZmYAAPKnAAANWQAAE9AAAApbAAAAAAAAAABYWVogAAAAAAAA9tYAAQAAAADTLW1sdWMAAAAAAAAAAQAAAAxlblVTAAAAIAAAABwARwBvAG8AZwBsAGUAIABJAG4AYwAuACAAMgAwADEANv/bAEMACgcHCAcGCggICAsKCgsOGBAODQ0OHRUWERgjHyUkIh8iISYrNy8mKTQpISIwQTE0OTs+Pj4lLkRJQzxINz0+O//bAEMBCgsLDg0OHBAQHDsoIig7Ozs7Ozs7Ozs7Ozs7Ozs7Ozs7Ozs7Ozs7Ozs7Ozs7Ozs7Ozs7Ozs7Ozs7Ozs7Ozs7O//AABEIAwgGeAMBIgACEQEDEQH/xAAcAAEAAgIDAQAAAAAAAAAAAAAABgcEBQIDCAH/xABSEAEAAQMCAQcIBQgHBgQFBQAAAQIDBAURBgcSITFBUWETFCJxgZGhsTJCUsHRFSMzYpKTosIXQ1NUVXLhFiSCstLwNDZz8SU1N2N0RoOUpLP/xAAaAQEBAAMBAQAAAAAAAAAAAAAAAQQFBgMC/8QAMBEBAAIBAwIEBQMEAwEAAAAAAAECAwQRMQUSEyEyQVFhcYGRobHRFCIj8DNCwfH/2gAMAwEAAhEDEQA/ALmAAAAAAAAAAAAAAAAAAAAAAAAAAAAAAAAAAAAAAAAAAAAAAAAAAAAAAAAAAAAAAAAAAAAAAAAAAAAAAAAAAAAAAAAAAAAAAAAAAAAAAAAAAAAAAAAAAAAAAAAAAAAAAAAAAAAAAAAAAAAAAAAAAAAAAAAAAAAAAAAAAAAAAAAAAAAAAAAAAAAAAAAAAAAAAAAAAAAAAAAAAAAAAAAAAAAAAAAAAAAAAAAAAAAAAAAAAAAAAAAAAAAAAAAAAAAAAAAAAAAAAAAAAAAAAAAAAAAAAAAAAAAAAAAAAAAAAAAAAAAAAAAAAAAAAAAAAAAAAAAAAAAAAAAAAAAAAAAAAAAAAAAAAAAAAAAAAAAAAAAAAAAAAAAAAAAAAAAAAAAAAAAAAAAAAAAAAAAAAAAAAAAAAAAAAAAAAAAAAAAAAAAAAAAAAAAAAAAAAAAAAAAAAAAAAAAAAAAAAAAAAAAAAAAAAAAAAAAAAAAAAAAAAAAAAAAAAAAAAAAAAAAAAAAAAAAAAAAAAAAAAAAAAAAAAAAAAAAAAAAAAAAAAAAAAAAAAAAAAAAAAAAAAAAAAAAAAAAAAAAAAAAAAAAAAAAAAAAAAAAAAAAAAAAAAAAAAAAAAAAAAAAAAAAAAAAAAAAAAAAAAAAAAAAAAAAAAAAAAAAAAAAAAAAAAAAAAAAAAAAAAAAAAAAAAAAAAAAAAAAAAAAAAAAAAAAAAAAAAAAAAAAAAAAAAAAAAAAAAAAAAAAAAAAAAAAAAAAAAAAAAAAAAAAAAAAAAAAAAAAAAAAAAAAAAAAAAAAAAAAAAAAAAAAAAAAAAAAAAAAAAAAAAAAAAAAAAAAAAAAAAAAAAAAAAAAAAAAAAAAAAAAAAAAAAAAAAAAAAAAAAAAAAAAAAAAAAAAAAAAAAAAAAAAAAAAAAAAAAAAAAAAAAAAAAAAAAAAAAAAAAAAAAAAAAAAAAAAAAAAAAAAAAAAAAAAAAAAAAAAAAAAAAAAAAAAAAAAAAAAAAAAAAAAAAAAAAAAAAAAAAAAAAAAAAAAAAAAAAAAAAAAAAAAAAAAAAAAAAAAAAAAAAAAAAAAAAAAAAAAAAAAAAAAAAAAAAAAAAAAAAAAAAAAAAAAAAAAAAAAAAAAAAAAAAAAAAAAAAAAAAAAAAAAAAAAAAAAAAAAAAAAAAAAAAAAAAAAAAAAAAAAAAAAAAAAAAAAAAAAAAAAAAAAAAAAAAAAAAAAAAAAAAAAAAAAAAAAAAAAAAAAAAAAAAAAAAAAAAAAAAAAAAAAAAAAAAAAAAAAAAAAAAAAAAAAAAAAAAAAAAAAAAAAAAAAAAAAAAAAAAAAAAAAAAAAAAAAAAAAAAAAAAAAAAAAAAAAAAAAAAAAAAAAAAAAAAAAAAAAAAAAAAAAAAAAAAAAAAAAAAAAAAAAAAAAAAAAAAAAAAAAAAAAAAAAAAAAAAAAAAAAAAAAAAAAAAAAAAAAAAAAAAAAAAAAAAAAAAAAAAAAAAAAAAAAAAAAAAAAAAAAAAAAAAAAAAAAAAAAAAAAAAAAAAAAAAAAAAAAAAAAAAAAAAAAAAAAAAAAAAAAAAAAAAAAAAAAAAAAAAAAAAAAAAAAAAAAAAAAAAAAAAAAAAAAAAAAAAAAAAAAAAAAAAAAAAAAAAAAAAAAAAAAAAAAAAAAAAAAAAAAAAAAAAAAAAAAAAAAAAAAAAAAAAAAAAAAAAAAAAAAAAAAAAAAAAAAAAAAAAAAAAAAAAAAAAAAAAAAAAAAAAAAAAAAAAAAAAAAAAAAAAAAAAAAAAAAAAAAAAAAAAAAAAAAAAAAAAAAAAAAAAAAAAAAAAAAAAAAAAAAAAAAAAAAAAAAAAAAAAAAAAAAAAAAAAAAAAAAAAAAAAAAAAAAAAAAAAAAAAAAAAAAAAAAAAAAAAAAAAAAAAAAAAAAAAAAAAAAAAAAAAAAAAAAAAAAAAAAAAAAAAAAAAAAAAAAAAAAAAAAAAAAAAAAAAAAAAAAAAAAAAAAAAAAAAAAAAAAAAAAAAGk1zibG0jezREX8rb6ET0U/5p+5DcviXV8yuZqzK7UdlNmeZEe7pYWbW4sU9vMs7BoMuaO7iPms0VVa1jU7NXOt5+RHhNyZj3SkGk8bXaK6bWp0xXRPR5ainaY9cR1+x54+o4rTtbyeuXpmWkb1ndNRwtXbd+1TdtVxXRXG9NVM7xMObY8tZwAAAAAAAAAAAAAAAAAAAAAAAAAAAAAAAAAAAAAAAAAAAAAAAAAAAAAAAAAAAAAAAAAAAAAAAAAAAAAAAAAAAAAAAAAAAAAAAAAAAAAAAAAAAAAAAAAAAAAAAAAAAAAAAAAAAAAAAAAAAAAAAAAAAAAAAAAAAAAAAAAAAAAAAAAAAAAAAAAAAAAAAAAAAAAAAAAAAAAAAANNxJrcaPg7Wpicm9vFuPs99XsbiqqKKZqqmIiI3mZ7FW63qVWq6pdyZmeZvzbcT2Ux1fj7WFrc/hY9o5ln6HT+Nk3txDCrrquV1V11TVVVO8zM7zMuIOcdMACt/wAMcQVaXkRjZFcziXJ6d/6ue+PDvWFExMRMTvE9Uwp5OuDdZ85xp06/VvdsRvbmZ+lR3ez5Nv0/Uzv4Vvt/DS9R0sbeNX7/AMpQA3LRgAAAAAAAAAAAAAAAAAAAAAAAAAAAAAAAAAAAAAAAAAAAAAAAAAAAAAAAAAAAAAAAAAAAAAAAAAAAAAAAAAAAAAAAAAAAAAAAAAAAAAAAAAAAAAAAAAAAAAAAAAAAAAAAAAAAAAAAAAAAAAAAAAAAAAAAAAAAAAAAAAAAAAAAAAAAAAAAAAAAAAAAAAAAAAAAAAAAAANNxXmTh6Be5s7VXtrVPt6/hEq2THj3I/8AB40T9quqPdEfehznuoX7s23wdL02nbg3+IAwGxAAHfh5d3By7WVYq2uW6t48fB0CxMxO8JMRMbStnT821qODay7M+jcp327p7YZKA8Hax5nm+Y3qtrORPo7/AFa/9er3J86bTZ4zY4t7+7lNVgnBkmvt7ADJYoAAAAAAAAAAAAAAAAAAAAAAAAAAAAAAAAAAAAAAAAAAAAAAAAAAAAAAAAAAAAAAAAAAAAAAAAAAAAAAAAAAAAAAAAAAAAAAAAAAAAAAAAAAAAAAAAAAAAAAAAAAAAAAAAAAAAAAAAAAAAAAAAAAAAAAAAAAAAAAAAAAAAAAAAAAAAAAAAAAAAAAAAAAAAAAAAAAACveNL/ldfm3v+htU0/f96Ps/XL/AJzreZd33ibtURPhHRHyYDlc9u7Lafm6/T17MVa/IAeL3BlU6dkV6bXqFNO9i3c8nVMdcTt8umGKsxMcvmLRPAAj6ImYneJ2mFlcNavGraZTNyrfIs7U3Y7+6fb+KtWy0LVatI1Oi/vM2qvRu099P+nWy9Jn8HJ58Tywtbp/Gx+XMcLQHGium5RTXRVFVNUbxMdUw5OlcsAAAAAAAAAADhcu27NPPu3KbdPfVVEQwq9e0m3O1WoY/wDw1xPyfNr1rzOz7rS1vTG7YDCs6xpmRMU2s/HqqnqjykRPuZnWRaLcSlq2rzGz6A+nyAAAAAAAAAAAAAAAAAAAAAAAAAAAAAAAAAAAAAAAAAAAAAAAAAAAAAAAAAAAAAAAAAAAAAAAAAAAAAAAAAAAAAAAAAAAAAAAAAAAAAAAAAAAAAAAAAAAAAAAAAAAAAAAAAAAAAAAAAAAAAAAAAAAAAAAAAAAAAAAAAAAAAAAAAAAAAAAAAAOvIuxYxrt6rqt0TVPsjd2NVxNf834ey6onpqo5n7UxH3vjJbtpNvg+8de+8V+Mqzqqmqqaqp3mZ3mXwHJOyABVh8L4Nurhei1eoiqjJ5810z2xM7fKIQjVtOuaVqNzFubzFM70Vfap7JWZptjzbTMWxttNu1TTPr26Wq4s0f8o6d5e1TvkY8TVG3XVT2x9/8A7t7qNL3YK7c1hz2m1fbqLb8Wn/4rwBonQgAJvwXrHlrE6Zeq9O1HOtTPbT2x7Pl6krVHiZV3CyreTZq5ty3Vzolaen51rUcG1l2Z9G5G+32Z7Yb7QZ++nZPMfs53qOn8O/iV4n92SA2TVgMDK1vTMLeL+bapqjrpiedPujpfNrVrG9p2fVa2tO1Y3Z4i+Vx1hW94xca7envqmKI++WlyuNNVyN4tTax6f1Kd5987sS+uwU99/ozcfT89/bb6rBqqpopmqqYpiOuZlrMviTSMPeK8yiuqPq2vTn4dCuMnNysyrfJybt6f165nZ0MK/U7f9K/lnY+lV/72/CaZfHlqN4w8Oqruqu1bfCPxaXL4t1jK3iMiLFM/Vs07fHr+LSjDvq81+bM7Ho8FOK/nzc7t+7kV8+9druVfarqmZ+LgDF33ZURsNnpWv52k3KfJXJuWd+mzXO9Mx4dzWD6pe1J3rO0vm9K3jttG8LY0/Ps6lhW8qxO9NcdMT10z2xLKQ3gLIq52XjTPo7U1xHdPVP3e5MnT6fL4uKLy5TU4vByzSAB7scAAAAAAAAAAAAAAAAAAAAAAAAAAAAAAAAAAAAAAAAAAAAAAAAAAAAAAAAAAAAAAAAAAAAAAAAAAAAAAAAAAAAAAAAAAAAAAAAAAAAAAAAAAAAAAAAAAAAAAAAAAAAAAAAAAAAAAAAAAAAAAAAAAAAAAAAAAAAAAAAAAAAAAAAAAAAAAAARnjq/zNJs2YnpuXt/ZET+MJMg/Hl/nZ2Lj7/QtzX752/lYmtt24LM3QV7tRVFQHNOpGRp9jznUcaxtvFy7TTPqmWO3XCVjy/EWPMxvFuKq59kdHxmHpir35K1+MvLNbsx2t8IWQA6xxyuuKtH/ACZqM3rVO2PkTNVO3VTPbH/f3NEtTV9Nt6rp1zFr2iqY3oq+zVHVKrr1m5j3q7N2maa7dU01RPZMOd1un8LJvHEum0Go8XH2zzDgAwWwEg4V1+jSr1ePlVTGLd6d9pnmVd/t/BHx6YslsV4vXl5ZcVctJpbiVgZXG2l2d4sRdyJ/Vp5se+en4NLl8c593eMazax4759Or8PgjIyL67Pf32+jGx6DBT23+rMytW1DN385zLtyJ+rztqfdHQwwYlrTad5lmVrWsbVjYAR9AAAAAAAOVFFVyumiimaqqp2iI65kRLuAserfMyZj0fRojxnpmfu96ZNfommxpWlWcaduftzrkx21T1/h7GwdRpsc48Vazy5PVZYy5rWjgAZDGAAAAAAAAAAAAAAAAAAAAAAAAAAAAAAAAAAAAAAAAAAAAAAAAAAAAAAAAAAAAAAAAAAAAAAAAAAAAAAAAAAAAAAAAAAAAAAAAAAAAAAAAAAAAAAAAAAAAAAAAAAAAAAAAAAAAAAAAAAAAAAAAAAAAAAAAAAAAAAAAAAAAAAAAAAAAAAAAFbcW3/L8RZER1W4poj2RG/xmVkql1C/5zqOTf33i5dqqj1TLV9TttjrX4y23Sq75LW+EMcBo3QCV8BWOdm5WRt9C3FHvnf+VFE84GsczSb16eu7emPZER9+7N0Ne7PHyYHULdunn5pMA6NzAhvG2j/R1SzT3U3oj4Vfd7kydd+zbyLFdm7TFVu5TNNUT2xLxz4YzY5rL30+acOSLwqEZur6bc0rUbmLXvMUzvRVP1qZ6pYTl7VmszWeXW1tFqxaOJAHy+gAAAAZeLpWfnbebYl25E/Win0ff1N1icD6je2nJu2seO2N+fVHsjo+L2pgy5PTV4ZNRix+q0I0J9i8E6ZYiKsi5dyJjr3q5tPw6fijGv5uBevxi6bjWrWPZn6dNPTcnv369u56ZdLfFXuvO3yeWLV0zX7ccTPzagBiswAATLg/QJo5uqZVO0zH5iif+b8Gv4W4enUb0ZmVR/utufRpn+sn8P8A2T+I2jaG20Ol3/y3+38tN1DWbb4qff8Ah9AbpogAAAAAAAAAAAAAAAAAAAAAAAAAAAAAAAAAAAAAAAAAAAAAAAAAAAAAAAAAAAAAAAAAAAAAAAAAAAAAAAAAAAAAAAAAAAAAAAAAAAAAAAAAAAAAAAAAAAAAAAAAAAAAAAAAAAAAAAAAAAAAAAAAAAAAAAAAAAAAAAAAAAAAAAAAAAAAAdORl4+JRz8m/btU99dUQ0ebxrpmPvTj03Mmr9WObT75/B5ZM2PH6p2euPBkyeiu6ROF27asUTXduUW6I66q6oiEBzONNTyN6bHk8an9WOdV75/Bo8jKyMuvn5F+5dq766plgZOpUj0Ru2OPpeSfXO36p5qvF2nY+Pdt4t3zi/NMxTzI9GJ75n8FfA1efUXzzE29m30+mpp4mK+4Ax2SLN4aseb8PYdMx01Uc/8AamZ+9WdNM1VRTTG8zO0Qt2xaixj27NPVboimPZGza9Mr/fazT9VttStfn/v7uwBu2hAAaHizR/ylp3lrVO+RjxNVO3XVT2x9/wD7q7XEhWrcG5V3Uq7mB5KLF2edtVVtzJnrj1NTrtLa8xkpHn7tz0/V1pE48k7R7IkJlicBURtOZmzPfTZp2+M/g3WJwzpGJtNOHTcqj6130/hPQxadPzW58mXk6lgr6fNXOPh5OXVzcbHu3p/Uomdm5xeDNWyNpu028en/AO5VvPujdYNNNNFMU0UxTTHVERtEOTMp03HHqndg5OqZJ9Ebfqi2LwJh29pysq7enuoiKI++W6xdD0vC2mxhWomPrVRzp98s8ZtNPix+mrByanNk9VpARziniGNOszh4tf8AvVyPSqj+rj8f/d95ctcVZtZ8YsVst4pVgcXcRb8/S8Ovwv1x/wAsff7kPJned5HM5s1s1+6zqsGCuGnbUAeL3G24f0O5rOX6W9ONbne5X3+EeLG0rS7+rZtONZjaOuuvboop71mYODY07Eoxcenm0UR7ZnvnxZ+j0vi27remP1a3Xavwa9tfVP6O6zZt49mizaoii3RG1NMdUQ5g6HhzczuAAAAAAAAAAAAAAAAAAAAAAAAAAAAAAAAAAAAAAAAAAAAAAAAAAAAAAAAAAAAAAAAAAAAAAAAAAAAAAAAAAAAAAAAAAAAAAAAAAAAAAAAAAAAAAAAAAAAAAAAAAAAAAAAAAAAAAAAAAAAAAAAAAAAAAAAAAAAAAAAAAAAAAAAAADGzNRw9Po5+XkUWo7Iqnpn1R1yjubx1jW96cLGrvT9u5PNp93XPweOTPix+qXvi0+XL6KpWxsvUcPBp3ysm3a7oqq6Z9nWr7N4p1bN3icjyFE/Vsxzfj1/FqKqqq6pqqqmqZ65md5lr8nU6x6I/LZY+lWnzyW/CdZvHODZ3pxLNzInsqn0Kfx+DQZvF+rZe9NF2nHonstRtPvnpaMYGTWZsnM7fRsceiwY+K7/VyuXbl6ubl25VcrnrqqneZcQYjLABQAACImZiIjeZ6ogGfodjznW8O1tvE3aZmPCOmfktNB+ENGzLeqU5t/GrtWrdE82bkbTMzG3RE9PVMpw3/Tsc1xTMxzLnOp5IvliIniABsWsAAAAAAAAAYOrapY0jCqyb07z1UUR111dz5taKx3Tw+q1m0xWvLG4h1y3o2J6O1WTcja3R3frT4K3u3bl+7Xdu1zXcrneqqeuZdudm39Ry68nIr51dc+yI7o8GO5zVamc9vlHDqNJpYwU+c8gDEZg7sTEvZ2VRjY9HPuXJ2iHXRRXcuU26KZqrqnammI6ZlYvDeg0aPi+UuxFWVdj06vsx9mGVptPOe+3t7sTVamuCm/vPDL0bSLOj4UWLe1VyrpuXNumqfw7mwB0laxSsVrw5a97XtNrcyAPp8gAAAAAAAAAAAAAAAAAAAAAAAAAAAAAAAAAAAAAAAAAAAAAAAAAAAAAAAAAAAAAAAAAAAAAAAAAAAAAAAAAAAAAAAAAAAAAAAAAAAAAAAAAAAAAAAAAAAAAAAAAAAAAAAAAAAAAAAAAAAAAAAAAAAAAAAAAAAAAAAAAAAAAAAOF27bsWqrt2uKKKI3qqqnaIhDNZ40u3ZqsaZHk6Oqb1UelPqjs/76mLxZrtefl1YVivbGs1bTt9eqOufVCOtJq9baZmmOfL4t9o9BWKxfLG8/Bzu3bl65Ny7cquV1ddVU7zLgDVNvwACgAAOyzj3sm55OxZru1/ZopmZ+BEb8JMxHnLrG/wuDdUydqr1NGNRPbXO8+6Pv2b/C4I06xtVk13MmrtiZ5tPujp+LLx6LNf22+rDya7Bj99/ogdFuu7XFFuiquqeqKY3mW4w+EtXy9pqsRj0T9a9O3w61g42Fi4dHMxse3Zjt5lMRu72wx9NrHrndrsnVbT5Y67fVFsLgXEt7VZmRcvz9mj0afx+TfYml4OBG2Li27U/ain0vf1ssZ+PT4sfpq12TUZcvrsAPZ4AAAAAAAAAONy5Rat1XLlUUUUxvVVM7REA6szLs4OLcycivmW7cbzPf4R4qz1nVr2sZ037no0R0W6OymPxZXEevV6xlcy3M04tqfzdP2p+1LTOf1uq8Weyvpj9XR6HSeDHff1T+gA17ZgJZwlw75aqnUsyj83HTZomPpT9qfDueuHDbLftq8c+auGk3sz+FOHfM7dOoZdH+8Vx+bomP0cd/rlJwdNixVxUitXKZs1s15vYAeryAAAAAAAAAAAAAAAAAAAAAAAAAAAAAAAAAAAAAAAAAAAAAAAAAAAAAAAAAAAAAAAAAAAAAAAAAAAAAAAAAAAAAAAAAAAAAAAAAAAAAAAAAAAAAAAAAAAAAAAAAAAAAAAYup6jj6TpuRn5VUxasUTVVt1z3RHjM7R7QZQgP8AS5pH+H5v8H4pRw5xDjcS6bOdi27luim5Nuabm28TERPZ64BtgAAABBsvlV0nFzL2POFl1zZuVUc6nm7VbTtvHS6v6XNI/wAPzf4PxBPhDtO5UOH829Fq95xhzVO0VXqI5nviZ29qX0V03KKa6Koqoqjemqmd4mO+AcgAAdOXlWcLEu5WRXFFqzRNddU9kRG4O4QH+lzSP8Pzf4PxSThnifE4oxL2Ri2rtqLNfMqpu7b9W+/RIN0AAAAMLU9Y0/RsfzjUcu3j2+znT01eqI6Z9iGZ3K5ptquacLTsjJiPrXK4txPq65BYArazyw2qrkRe0SuijtmjJiqfdNMfNNdB4gwOI8GcvAquc2mrmV03KebVTO2+09nb2SDaAADX67rFjQdIvalk0V127XNiaaNudO8xHRv60TtcrGlXrtFqjTs2aq6opiPQ659oJ4AAIzxLxzgcMZ9vDycbIvXLlqLn5rm7REzMds+EnDXHGFxPn3MTFxMi1Nu1Nyqq7zdtt4jbonr6fgCTAAAhOfyo6VgahkYdWFl3Kse7Vbqqo5u0zTO07dPgCbCA/wBLmkf4fm/wfif0uaR/h+b/AAfiCfDWcP65Z4h0unULFi7Zt1V1U0xc23nbo36GzAYmq5E4mlZWRTO1Vu1VNM+O3R8WWwdaszkaLmWqY3qmzVtHfMRu+Mm/ZO3wfePbvjfjdVfWA5J2YAAADtxsW/mXos41mu7cn6tEbt/hcEajf2qyrlvGp7t+fV7o6Pij9jJv4tyLmPertVx9aiqYlItP43zbG1GbbpyaPtR6NX4SytP/AE+/+Xf/AM/lh6n+p2/w7f8Av8N7hcG6Vi7VXaa8muP7Sej3R9+7d2bFnHt+TsWqLVEfVopiI+DXafxJpeo7U28iLdyf6u76M/hPsbVv8NcMRvi2+znc9s022y7/AHAHuxwAAAAAAAAAAAAABA+K+IvPrk4GJX/u9E+nXE/pJ/CPilPEVORVoOXGLMxc5nZ183f0vhurBqeo57V2xx7tx0zT1tM5be3+7gDSt8A5W4om7RFyZiiao50x2R2iN7wxw/Oq3/OcimYxLU9P/wBye71d6wqaYppimmIiIjaIjqh1YtmxYxbdrGppps00xzIp6tnc6fTaeuGm0c+7lNVqbZ77zx7ADJYoAAAAAAAAAAAAAAAAAAAAAAAAAAAAAAAAAAAAAAAAAAAAAAAAAAAAAAAAAAAAAAAAAAAAAAAAAAAAAAAAAAAAAAAAAAAAAAAAAAAAAAAAAAAAAAAAAAOFy7bs0c+7cpt099U7QwbnEOiWqubc1jAoq7qsmiJ+YNiNTTxTw/XMxGt4HR35FMfOWZjanp+ZMRi52NfmeqLV6mr5SDKAAAAAAAAAAVbyq8Q+VyLWhY9foWtruRMT11fVp9kdPtjuWDr2sWdC0bI1G9tPkqfQpmfp1T9GPbLz9lZN7Ny7uVkVzXdvVzXXVPbMzvIOlaHJBl74+pYUz9Gui7THriYn5Qh/EXDVeg6TpF+9Exfzbddd2J+rO8TEe6qPbu2nJXmeb8WTYmejJx66IjvmNqvlEqLkAQHRnZMYWBkZVW21i1VcnfwiZ+53o9x3l+Z8GajXE7Tctxajx50xTPwmQUTVVNVU1VTvMzvMpBj8BcT5WLayrOmTVau0Rcoq8tbiZpmN46Jq36mhs2qr96izRG9dyqKafXM7PSFq3aw8Si3ExRas0RTEzO0REQo85ZWLkYWTcxsqzXZvW52rorjaYlZ/JPrV7JxMrSb9c10421yzMzvtTPRMeqJ2n2yhnHep4urcWZWRh1U12aYptxcp6q5pjaZ8f9Ej5IcWurUNRy9p5lFqm3v2TMzv/KC0wEBXHKrxD5Oxa0LHr9K7tcyduyn6tPtnp9kd6eanqNjSdNyM/Jna1YomqrvnuiPGZ2j2vPmp6hf1XUsjPyauddv1zVV4d0R4RG0ewGKsXkhy+bqGo4Uz+ktU3Yj/ACztP/NCM6rw3c0vhXS9UuxMXc2uuaonsomImj4RVPt8GVycZfmvGmJTM7U36a7U+2mZj4xCi7wEBH+L+KrHC+m+V2pu5d7eLFqZ657ap8Ib9QXFut1a/wARZOXzt7NNXk7Eb9EUR1e/r9oMDU9UzdYza8zPv1XrtfbPVEd0R2R4M7SuEde1m3F3C065VanquVzFFM+qatt/YkfJxwfZ1e5Vq2o24uYtmvm2rVUdFyuOuZ74ju7Z9S24iKYiIiIiOiIgFEZ/AvEmm2ZvXtMrqtxG81Waqbm3spmZWNyWWPI8IRX/AG+RXX8qf5Uyddmxax7fk7Num3Rzpq5tMbRvM7zPtmZkHYACC8rOX5LhzGxonpv5MTPqpifvmFdcIYnnvFumWNt484prmO+KfSn5JVyvZfP1TT8Pf9FZqubf5p2/kaTk9y9P0/ieMzUcm3j27NmuaKq56JqnaNvdMgvAaL/bXhr/ABnG98/gf7a8Nf4zje+fwBVnKNl+dcaZcRO9Nimi1HspiZ+Myk3JBibW9TzJjrmi1TPq3mfnCvtYzPyhrWbmRO8X79dceqapmPgtzkwxPNuDrd3bacm9Xc+PN/lBLwAcL12mxZuXq52ot0zVV6ojd5uv3q8jIuX7k713K5rqnxmd19cY5fmXCGp3t9pmxNuJ8avRj/mUCCQYfAvEufh2svG03n2b1MV0VeWtxvE9U7TVu7v6OuLP8K//ALFr/qWbgcWcM4WnY2JTrONtYs0W42mfqxEd3gz8PinQtQyqMXE1Ozev3N+ZRTM7z0b/ACgHHhTTLuj8MYODfo5l63bmblO8TtVMzVMbx0dctwAAAKx4h0urStVuWop2s1zz7U/qz2ezqataWs6RZ1jBmxc9Gunpt1/Zn8Fa52Bk6dlVY+Vbmiun3THfE9sOc1mmnFfePTLp9FqozU7Z9Uf7uxwGEzwAAABstP4g1PTdosZNVVuP6u56VP8Ap7GtH1W9qTvWdnxelbxtaN050/jnFu7UZ9mqxV9uj0qfd1x8UjxsvGzLflMa/Rdo76Kt9lRuyzfvY1yLli7XarjqqoqmJbHF1HJXyvG7W5umY7edJ2W8IFp/G2dj7UZlFOVR9r6NXv6vgk+n8TaXqG1NF+LVyf6u76M+/qls8Wrw5OJ2n5tTm0WbFzG8fJtgGUxAAAAAAAAAAHzrVnxHpX5K1Wu3RTMWLnp2vVPZ7J+5ZrTcUaV+U9Jqmine/Y3rt7dvfHtj4xDC1uDxcflzDO0OfwcvnxKtgHOOoAAT3gzVfO9PnCu1b3cb6PjR2e7q9ySqp0nUK9L1K1l0bzFM7V0/apnrhadq5RetUXbdUVUV0xVTMdsS6HQZ/Ex9s8w5rqGDw8vdHEuYDPa4AAAAAAAAAAAAAAAAAAAAAAAAAAAAAAAAAAAAAAAAAAAAAAAAAAAAAAAAAAAAAAAAAAAAAAAAAAAAAAAAAAAAAAAAAAAAAAAAAAAAAAAAAAAAAAdOTlY+Fj1ZGVft2LVEb1V3KopiPbKP8V8b4HDVubMbZOdVHo2KZ+j41T2R4dc/FUGt8Q6nxBk+W1DJmuIn0LVPRRR6o+/rBY2tcq2n4s1WtJxqsyuOjytz0Lfsjrn4IVqXH/EmpTMTqFWNRP1MaPJ7e36XxRsUdl7IvZNybl+9cu1z9auqap98usAH18AbjTOLNd0iY801K9FEf1dyrn0e6d4j2J5oPKtj5FVNjW8eMaqejzizEzR7aeuPZuqsB6UsX7OVYov492i7arjemuiqJiqPCXYoXhji7UOGcmJs1zdxap/OY1c+jV4x3T4rq0XWsLX9OozsG5zqKuiqmfpUVdtMx3oNgAAAADT8Va7Rw9oF/OmY8rtzLFM/WuT1e7r9UArrlQ4h8/1WnSMevexhzvd2+td/0jo9cy0fBenYmocRWJz79mzi4/5255auKYr26qenr3nb2btHcuV3rtd25VNdddU1VVTO8zM9cuCi0uVPJ0/P0TEu4ubjX7tnI2mm3dpqmKaqZ3naJ74hBeEcvzHizTL++0ecU0TPdFXoz8Jadyt11WrlNyidqqJiqJ7pgHpYdOJkU5eHZyaPo3rdNceqY3dyAgfK1l+S4excWJ2m/kxM+MU0z98wniqeV3L5+rafhxP6GxVc2/zVbfyAr6JmJiYnaY7XOq/erpmmq7XVE9k1TKUcnWh4mua/dt59iL2PZx5rmmZmI528RHV659yzbfA3DFurnU6PZmf1pqqj4yopPS9Iz9azKcXT8eu9cnr2jopjvmeyF5cLcPWeGtFt4NFUV3Znn3rkfXrnr9kdUepssXCxcGz5HExrWPbj6lqiKY90O9ABrte1ezoWjZOo3tp8lT6FMz9Oqfox7ZBX3KrxD5XItaFj1+ja2u5G09dUx6NPsjp9sdyH8M6bj6rr2Nj5d+3YxYq596u5XFMc2OmY3ntnq9rX5WTezcu7lZFc13b1c111T2zM7y6VFt8pWVpmdwnFOLm4lyvHv0V00WrtMzttNPRET+srLRcvzDW8HL32izkUVz6oqjf4MEB6YGBoeX5/oWBl77zex6KqvXNMb/FnoMDXr1WPw9qV+j6VrEu1x64omXnZ6P1DFjO03KxJ6Iv2a7f7UTH3vOd23XZu12rlM010VTTVTPXEx1wC+eC7FvH4O0yi3G0VWIrn11dM/GW8QPkz4lx8vSaNFyLtNGVjbxaiqdvK0b79HfMd3dt4p4AMO/quDjZ1jBu5NEZWRO1uzE71T0TO+3ZG0T0yzAAAUfyjZfnXGmZETvTYii1HspiZ+Myi7N1rL8/1vOy994vZFdceqap2+C3OTHE824NtXJjbzm9Xd+PN/lUUsPTCL8o+X5rwXlxE7VX6qLUdPfVEz8IlBR70HwxieY8Mabj7bTTjUTV65jefjMqEwMac3UMbEp33v3abcbeMxH3vR8RFNMU0xtERtEA+gAhXKrl+Q4UosRPTk5FNMx4RE1fOIU4sjlfy98jTcOJ+jRXdqj1zER8pabkxxPOeMrVyY3jGs13Phzf5gRBMuS3E844ui9MdGNj11xPjO1P80rmAAAAAGJqOmYmqY/kcq3zo+rVHRVTPfEssS1YtG0vqtprO8T5q+1Xg/Owpm5ixOXZ/Vj049nb7EfqpmmqaaomJjomJ7FwsHUNGwNTp/wB6x6aq9ui5HRVHtarN02s+eOdvk22Dqlo8ssb/ADVWJTqXA+TZ3r0+7F+n+zr2pq9/VPwRq/jX8W7NrItV2q466a6dpavLgyYp/vht8WfHljek7usB4vcAABnaZo+Zq17mYtremJ9K5V0U0+uX1Ws2naseb5tatY3tO0MGImZ2iN5lJtF4Ov5fNv6hzrFnri39er8PmkejcM4WkxFyY8vk/wBrVH0fVHZ82RrWvadoGJ5zqGRFuJ+hRHTXXPdEdrcafp8R/dl/DSanqUz/AG4fyzcexaxbFFizRFFu3G1NMdkMHD4g03UdUvadh5EX72PRzrs0RvRT07bc7q39SpuKOUHUde5+Njb4eDPRzKZ9O5H60/dHR62/5H8fo1TJmP7O3TP7Uz9zbRG0bQ08zMzvKzABAAAAAAAAAAFccVaV+TdVqrt07WMjeujuie2Pf84aRZ3EOlxqulXLVMR5aj07U+Mdnt6lYzExO0xtMOc1uDwsm8cS6fQZ/FxbTzAAwmeJxwTqvlsavTrtXp2fSt79tPbHsn5oOydPzbmnZ9rLtfSt1bzHfHbHthkabN4OSLe3uxtVgjNimvv7LZHVjZFvLxreRZq51u5TFVM+Eu108TvG8OTmJidpAFQAAAAAAAAAAAAAAAAAAAAAAAAAAAAAAAAAAAAAAAAAAAAAAAAAAAAAAAAAAAAAAAAAAAAAAAAAAAAAAAAAAAAAAAAAAAAAAAAAAAAAAAAAAQvjrjmjQbdWnafVFeo10+lV1xYie2f1u6PbPjsONeKrfDOl72pirOyImmxRPTt31T4R8ZUfevXci9XfvXKrly5VNVddU7zVM9cyD5evXci9XevXKrlyuZqqrqneapntmXAFAAAAAAAABueGeJMrhrVKcqxM12atov2d+i5T+MdktMA9H6dqGNqmBZzsO5Fyxep51NUfKe6YZKmOT7i2dC1DzHMubYGVV0zM9Fqvqir1dk+/sXMg+gAKY5SOIfyvr04VivfFwd6I2noqr+tP3eye9ctdPPoqp3mOdG28TtMItPJrwvM7zhXf39f4grzk+4fjXOIabl+3zsTD2u3YmOiqfq0+2en1RK5PyZp/9xxv3VP4OjRdB07h/Grx9OseSouV8+reqapmdtuuWxBqtW0bCydHzbFGFYiu5j100zFqmJiZpnbZ58emEVnk14XmZnzK5091+v8AEGXwNl+ecGabcmemi15KfDmTNPyiG/YOkaPhaHg+ZYFuq3Ziqaopqrmrpnr6ZZwCjuUXL8640zYid6bMUWqfZTG/xmV4o1mcn/DufmXsvIxLld6/XNddXlq43mZ3ntBHOSDE2x9SzJj6VdFqmfVEzPzhZDX6NomBoGHViadam1aqrm5MTVNUzVMRG+8+qGwAAAVHyo8Q+f6pRpGPXvYw53u7fWu/6R0euZW4i13k54avXa7t3Eu1111TVVVORXvMz1z1gq/gvQf9oOIrGPcp3xrX52/3c2Oz2ztHtld/5M0/+4437qn8GLonDml8PUXadNx/JeWmJrmapqmdurpn1y2gMK9pGn3rNdqcLHiK6Zp3i1T0bvO1y3VauVW642qomaZjumHpZGL/ACdcNZGRcv3MO5Nd2ua6tr1URvM7z0bg4cm2X51wXi0zO9WPXXan9rePhMJU12i6FgcP4teNp1uq3arr8pVTVXNXpbRG/T4RDYgKs5R+DL1GXc13TrM3LV30sm3RHTRV217d09vdPT29FpgPNFNU01RVTMxVE7xMdcNn/tPr3kfI/lnO5m223nFXV71w6pwFw7qtyq7dwfIXap3mvHq5m/s6vg1lvko4eor51V/PuR9mq7Tt8KYkEM5NLdeVxtavXKprqtWrlyaqp3md45v8y6Ws0jhzSNCifydg27NdUc2q501VzHdzp6dvBswGDrWX5hoedl77TZx664mO+KZ2+LOY2oYGPqmBdwsqmarN6ObXEVTTMx64B5wehOGcTzHhnTcbbaaMajnR+tMbz8ZlqP6NOF/7lc/f1/ilURFNMU0xtERtEA+q85XsvmaZp+Hv+lvVXNv8sbfzrDafW+FtJ4hu2rmpWa7tVmJpo2uVUxET19UgqHgLE884z06iY3pt1zdnw5sTMfGIXs0WkcG6Hoeb55gY1Vu9zZo51Vyqronr65b0AAFK8puX5zxnet77xjWqLUdPhzvnUi+Nl5OHXNeLkXbFVUbTVarmmZju6F35/AXD2pZ17NysW5XevVc6uqL1Ubz6olj/ANGnC/8Acrn7+v8AEFQflzV/8Vzf/wCRX+KyeSm7m5eNqOVl5d/Ijn0W6PK3KqubtEzO2/rhtv6NOF/7lc/f1/i3ejaJgaBh1YmnWptWqq5uTE1TVM1TERvvPqgGwAAAAAAAAdGVh42da8llWKLtHdVG+3q7neJMRMbSsTMTvCI6lwNbr3uadf8AJz/ZXemPZPX790WztLzdNr5uXj12+6rbemfVPUtdxuW6LtE0XKKa6Kuiaao3iWvzdPx386+Utjh6llp5X84/VT77RRVcriiimaqqp2iIjeZlP8/gvTsqvn49VWLVPXFHTTPsnqZ2kcP4OkU861T5S9MdN2vr9ncwq9OyzbaePi2Fup4YpvXn4I7ovBdd3m5GqTNujrixE+lPrns9XX6kxtWrGHjxbtUUWbVuOqI2iIa3XuJtL4cx/KZ1/wDOVRvRZo6a6/VHd4z0Kj4m441TiOqqzNXmuFv0Y9ufpf5p+t8vBt8OnphjasNLn1OTPO95TTijlOxcHn4mic3KyI6JyJ6bdHq+1Pw9ar8/UMvU8uvKzsiu/er666539nhHgxhkMcXByT4/kuF716Y6b2VVMT4RTTHz3U+vTk+x/N+CdPiY2mumqufHeuZj4bAkgCAAAD4D6NbpOvYOt3MunBrm5TiXfJVV9lU7b7x3x1x7GxmYiN5mI9YPoAAACveL9K8x1Pzm1TtZyfS6OqKu2Pv9qwmv1vTKdW0u7jdHP+lbnuqjq/D2sXV4fGxzEcxwy9Hn8HLEzxPKrR9qpqoqmiqJiqmdpieyXxzLqgAVM+CNV51NemXaumneuzv3dsff70vVHh5VzCy7WTanau1VFUePgtXCy7edhWsq1PoXaYqjw749jfdPz99OyeY/ZzvUsHZk8SOJ/d3gNk1YAAAAAAAAAAAAAAAAAAAAAAAAAAAAAAAAAAAAAAAAAAAAAAAAAAAAAAAAAAAAAAAAAAAAAAAAAAAAAAAAAAAAAAAAAAAAAAAAAAAAAAAA6M3MsafhXszJriizZomuuruiHerrlY1ubOJjaLZr2m/+evRH2Yn0Y9sxM/8ACCv+IdbyOIdYvahf3jnztbo36LdEdUf99u7WAoAADK03TcvVs63hYVmbt67O0Ux2eM90eK4uGuT7StDtUXcq3RnZu29Vy5TvTRP6tM/Pr9QKgxtH1TNo5+JpuXkUfatWKqo+EGTo2q4dvymVpmZYoj612xVTHvmHop9QeZxePEXAWj67bruUWacPLmPRv2adt5/Wp6p+fip7WtFzdB1GvBzrfNuU9NNUdNNdPZNM9sKNeAAPsRMzERG8z2LC4S5NLuVzM7XaarNn6VGL1V1/5u6PDr9QI5wxwdqPE17ezT5DEpna5kVx0R4RHbK79OwqdN07HwqLty7TYoiiK7s71TEd8u2xYtY1iixYt02rVuNqaKI2imPCHYgAAAAAAAAAAAAAAAAAAAAAAAAAAAAAAAAAAAAAAAAAAAAAAAAAAAAAAAAOu/dpsWLl6r6Numap9URu7Go4ryPNeFNUu9U+a10x65jaPmChs/OyNSzr2ZlXJuXr1U1VTPj2R4McFAAB6I0DH804e07H26beLbpn182N3nzFsTk5dnHp33u3KaI28Z2ekoiKaYppjaIjaIQfQAAAFZ8ofG/6XQtLu99OVepn+CJ+fu72fyg8b/ky3XpGmXf98rja9dpn9DTPZH60/BUoLE5IMrm6hqWHM/pLVF2I3+zMxP8AzQn/ABJZm/w9mUR2W+f+zMVfcqbk1yvNuNMaiZ2i/RXbn9nePjTC6b9qL+Pcs1dVyiaZ9sbPjJXupNfi+8duy8W+EqvxNb1PB2jHzbtNMdVMzzqfdPQ3eJx3l29oy8W3ej7VEzRP3wi9VM01TTVG0xO0w+OZpqMuP02dXk02HJ6qwsTE4x0nJ2i5crx6p7LtPR743bmxk2Mmjn4963dp76Koqj4Kicrdy5Zriu1XVRVHVVTO0wzadSvHrjdgZOl459E7fquAVticV6xibR5z5amPq3o53x6/i3eJx5bnaMzDqp76rVW/wn8WbTX4bc+TAydOz04jf6MDjTSvNc+M61Ttayfpbdlf+vX70aWFlanovEGm3cSMy3RXXHoRd9Caauzr+5X9yiq1cqt1xtVTMxMd0w1espWMnfSd4lt9DktOPsvG0w4gMJniW8EarzLtemXauiv07W/f2x9/slEnZYv3MbIt37VXNuW6oqpnumHtgyziyReHhqMMZsc0lbwxdNzrepafZy7e21ynpj7M9se9lOprMWjeHI2rNZmJAFQAAAAAAAAAAAAAAAAAAAAAAAAAAAAAAAAAAAAAAAAAAAAAAAAAAAAAAAAAAAAAAAAAAAAAAAAAAAAAAAAAAAAAAAAAAAAAAAAAAAAAAUPxznzqPGGoXN96bVzyNMd0UejPxiZ9q+Hm/PuVXtQybtX0q7tVU+uZkGOAoAAtrko0m1Y0a9qtVETeybk26au6inu9c7+6E+Qfkq1G3kcN3MHnR5XEvTvT282rpiffv7k4QAAGj4r4ascTaTVjV7UZFverHuz9Wru9U9U/6N4A82ZOPexMm5jZFubd21VNFdE9cTHXDu03S83WM2jDwMeq9er7KeqI75nsjxWtxdyf/wC0OtY+di3reNz/AEcuZjeZiOqqI7Z26Pckuh6Bp3D2FGLgWebE/TuVdNdye+qf+4BouEuAMPQIoy8zm5WodcV7ehan9WO/x+SXgAAAAAAAD4D6NBqnG3D2kTNF/UKLl2Ojydj85Vv3Tt0R7ZhFM/leoiZp07Sqqo7K8i5t/DH4gsoUxlcqPEl/fyVeNjb9XkrO+37Uy113jvii7O9Wr3Y/y000/KAXwKE/224l/wAYyffH4MqxyjcU2J6dRi7Hdcs0T924LxFU4PK7n25iM/TbF6ntmzVNufjv9yW6Tyi8PapNNFeTOFdn6mTHNj9rq98glI+U1RVTFVMxNMxvExPRL6AAAAAAAAAAAAADXapxBpGjU76hn2bFW2/MmreufVTHT8AbEV/qHK3ptmZp0/Av5Mx9a5VFun75+EI/l8q+u3pmMexiY9PZMUTVV75nb4AuAUZd5QuKbs7zqtVMd1FqiP5WP/trxL/jOT74/AF9iirPKBxTZmObqtdUR2V2qKt/fDa4fKvrlmYjJx8TJp7fRmiqfbE7fAFwCDaZyraNlTFGfYvYNc9dX6SiPbHT8EwwtQw9SsRfwsq1kW5+tbriqP8AQGSAAAAAAAAAAAANTm8U6Dp1U05WrYtFcddEXOdVHsjeWsr5SeFaZ2jUK6/GLFz74BKRFP6S+F/77c/cV/gf0l8L/wB9ufuK/wAASsRT+kvhf++3P3Ff4N5o+s4Ou4U5mn3KrlmK5o51VE09MeE+sGeinKVkeQ4KyqN9pvV27cftRPyplK0A5XMjmaFhY2/Tcyef7KaZj+YFTAKAANxwjj+dcW6Xa23jzmiuY8KZ533PQCk+TPH8txpj17b+Qt3K/wCGaf5l2IAACH8d8aUcP4s4WFXFWo3qejbp8jT9qfHuj2+vL4y4uscM4HNt827n3o/M2t/o/rVeEfH37UllZV/NyrmTk3art67Vzq66p6ZkHXcuV3blVy5XNddczVVVVO8zM9cy4go2PD2X5jxFp+VvtFvJomrp7OdG/wAN3od5oidp3h6N0zK8+0rEzN9/L2aLnvpiUFa63Y831vMtbbRF6qYjwmd4+bBb/jSx5LX6q9v01umv+X7mgcrnr25bR83X6e3firb5ADxe4AAAAAAACWcDajNGTe0+ur0bkeUtx3VR1++PkmyrNDvzj65hXInb89TTPqmdp+ErTb/p2SbYu2fZznU8cVzd0e4A2LWAAAAAAAAAAAAAAAAAAAAAAAAAAAAAAAAAAAAAAAAAAAAAAAAAAAAAAAAAAAAAAAAAAAAAAAAAAAAAAAAAAAAAAAAAAAAAAAAAAAAAADzfnW6rOoZFqr6VF2qmfXEy9IKE41wpwOMNStTTtFd6btPqr9L7waIBQABs+H9dyuHdWtZ+NO/N6LluZ6LlHbE/99a+dK1TF1nTrOfh18+zdjeN+ume2J8Yec0l4M4tvcM6hzbnOuYF+Y8tbj6v61PjHxj2AvMdWPkWcvHt5GPcpu2rtMVUV0zvFUS7UAAAAAAAAAAB8Yeq6tg6LhVZmffps2qe/rqnuiO2VQ8VcoGoa/NeNizVh4E9Hk6Z9O5H60/dHR6wTriLlI0rR5rx8LbPy46NqKvzdE+NXb6o+Ctdb4x1vXpqpysubdif6iz6FHu7fbu0QoAAAAAAAA3WhcWaxw9XHmWVM2d95x7npW59nZ642Wrwxx7pnEXNx6/90zp/qa6uiuf1Z7fV1qQfYmaZiYmYmOmJgHpcVlwVyi1c+3peu3d4nam1l1T0x3RXP83v71mIPoAAAAAAONy5RZt1XbtdNFFETVVVVO0UxHXMyDk0fEHF2kcOUTGXf5+RMb049rprn190etDOLOU6uua8Lh+rm09VWXMdM/5I7PXP+quLlyu9cquXa6q6653qqqneZnvmQS3XOUnW9Vmq3i1/k/Hnqpsz6cx419fu2RKuuq5XNddU1VVTvNVU7zLiKAAAAAADKwNSzdLyYyMDKuY92PrUVbb+E98eEsUBafDHKjayKqMTXqabNyeiMqiPQn/NHZ646PUsOiui5RTct1RXRVG9NVM7xMd8PNKWcHcc5XDt6jFyqqr+nVT6VE9NVrxp/BBdg6MPMxtQxLeXiXqb1i7TzqK6eqYd4AAAAAKw455Qa5uXdJ0S7NNNM829lUT0zPbTTPd4+7xCRcT8oOm6BVXi48Rm5tPRNuir0Lc/rVd/hHT6lX61xfreu1VRl5lVNmf6i1PMtx7O327tK+KAAAAC8eTnH834JwpmNqrs13J9tc7fCIUc9CcNY/mnDGmWJjaacW3zo8ZpiZ+KDaKs5X8jnZ2m42/0LVdzb/NMR/KtNTHKlkeW4wqt7/oMei386v5gQ4BQABYHJFj87Ws/J2/R48UftVRP8q2Fd8kGPzdO1LJ/tL1FH7MTP8yxEBpeKOJsXhnTJyb21d+veLFnfpuVfhHbLI17XcPh7S687Mq6I6LdEddyrsphRWua3ma/qdzOzK96quiiiJ9G3T2Ux4A6NS1LL1bPu5ubdm5euzvMz1R4R3RDFBQB9iJmYiI3mewH2iiq5XTRRTNVdU7U00xvMz3Q9AcLYeTp/DGn4uZG1+3ZiK6fs90eyNo9iMcA8C06ZRb1fVLe+bVG9mzVH6GJ7Z/W+XrT1BDePcaediZUUzttVRVO3V1TH3oeuCuii5RNFyimumeuKo3iWozOFNIzN5838hVP1rM834dXwarVaG2S83pPLcaTqFMWOMd4491bCV5nAmRRvVh5VFyPs3I5s++P9GizNF1LA3nJw7lNMfXiOdT746GryafLj9VW2x6nDk9NmCA8GQAAAAAAzdFszf1rCtx23qZn1RO8/CFqoRwPplVeVXqVynai3E0W9+2qeufZHzTdv+nY5ri7p93OdTyRbLFY9gBsWsAAAAAAAAAAAAAAAAAAAAAAAAAAAAAAAAAAAAAAAAAAAAAAAAAAAAAAAAAAAAAAAAAAAAAAAAAAAAAAAAAAAAAAAAAAAAAAAAAAAAAAFZcrejzzsTWbdPRt5C7MdnXNM/8ANHuWawtY0uxrOk5Gn5Efm79HN3+zPXE+ydpB50GVqWn5GlajfwMqjm3rFfNqjv7pjwmOliqAAAAJjwJxrXoGRGBnVzVp12rr23mzVP1o8O+Pb67lt3KLtum5bqiuiuIqpqpneJieqYeaU64C45nSLtOl6pdmcCudrVyrp8hP/T8vegt4fKaoqpiqmYmmY3iYnol9AAAAAAAaniLiPB4a0+crLq51dXRas0z6VyfDw75d2t61iaBpd3PzKtqKOimmOuurspjxUTruuZnEGp152ZV6U9FFEfRt09lMA5a9xBn8RZ85Wdc3iN4t2qfo247oj7+1qwUAAAAB34+Fl5k7YuLevzHZatzV8mdHC3EE0TX+RM/aO/Hr392wNUMrK0zUMKN8vBycf/1bVVHzhigAAAALM5OONKprt6Dqd2at/RxLtU/wT93u7lZvtNVVFUVU1TTVTO8TE7TEg9LiN8D8Sf7R6FTXeqiczH2t34757KvbHxiUkQAAAcblyizaqu3a6aKKImqqqqdopiOuZkHXlZVjCxbmVlXabVm1Tzq66p2iIUzxlxxk8R3qsXGmqxp1FXo0dU3fGr7o7DjjjK5xHmTjYtVVGnWavQp6vKz9qfuhEwAFAAAHKiiu5XFFuiquqeqKY3mQcRsLfD+tXqeda0fPrjvpxq5+58vaHq+PG9/Ss21HX6ePXT84BgD7MTEzExtMdj4AAAACWcDcY3OHc2MbKrqq069V6dPX5Kr7cffC6qK6Llum5bqiqiqImmqJ3iYnteaVpcl3E837U6Bl1712qZqxqpnrp7afZ1x4b9yCxgAAY+fm2dO0/Izb87WrFublXqiNwQvlJ4snTcX8jYVzbKyKd71dM9Nuiez1z8vWqNlalqF/VdSyM/Jq512/XNdXh3RHhEdHsYqgAAAAADnZtVXr1Fqn6VdUUx65l6Tt26bVqm3RG1NERTHqh5+4Xx/OuKdMszG8TlW5mPCKomfhD0GgKF43yPOuMtTub77XvJ/sxFP3L6ecdSyPO9Uy8nffy1+u5v371TIMUBQABdHJdj+Q4OoubbeXv3Lnr6qf5Ul1TU8TR9Pu52bc8nZtRvM9czPZER2zLUcK1Y+j8B4F7KuU2bNvG8tXXV0REVb1feqvjHiy/wAT6hvTzreFZmYsWp/5qvGfh84MbibiTL4m1OcrI9C1R6NmzE9Fun8Z7ZaYFAAH1anJ/wACzhxRrOr2Y84narHsVx+j/Wqj7XdHZ6+rH5P+BIiLWt6ta9LoqxseqOrurqj5R7VloAAAAAANfmaFpmfvN/DtzVP16Y5tXvhoczgO1VvVhZdVE9lF2N498fglwx8mmxZPVVkY9Vmx+mys8zhjV8LeasWbtEfWs+lHu6/g1VVM01TTVExMdcT2LhY2Vp+HmxtlYtq741UxMx7etg5OmRPot+Wxx9VtH/JX8KmFh3+DNHuzvRRes/8Ap3Px3dEcCabFW85GVMdkc6n8GLPTs8fBlx1LBMe6Bt1ofDWVq1ym5cpqs4u/TcmOmqO6nv8AWmOHwxpGHVFdOLFyuPrXZ53w6vg23UyMPTdp3yT9mLn6pvG2KPvLrxse1iY9GPYoii3bjammHaDbxERG0NNMzM7yAKgAAAAAAAAAAAAAAAAAAAAAAAAAAAAAAAAAAAAAAAAAAAAAAAAAAAAAAAAAAAAAAAAAAAAAAAAAAAAAAAAAAAAAAAAAAAAAAAAAAAAAAACHcf8AB/5fw4zsKiPyhj09ER/XUfZ9cdnu9VM1UzTVNNUTFUTtMT1w9Lq65Q+CJyoua3pdre9Ec7Js0x+kj7cePfHb6+sKsAUAAAAT/gHjuNN8no+rXP8AdJnazfqn9FP2Z/V+Xq6rYeaFkcn3HXkZt6Lq9783O1ONfr+r3UVT3d09nV1dUFoAAAAONy5Rat1XLlUUUURNVVVU7RER1zLkr/lR4knEwqNExq9ruTHOvzE9NNvsj2z8I8QQrjXii5xLq81W6pjCx5mnHo747ap8Z+WyOAoAAPsRMzERG8z2O/BwMrU8y3h4dmq9fuztTRT2/hHiuPhLgLC4ft0ZWVFGVqG283Jjem1PdTH39fqBB+H+TTVtWppv51X5Px6umOfTvcqjwp7Pb7lg6VwBw7pUU1RhRlXY/rMn05930fgkgg40W6LVEUW6KaKaeiKaY2iHIAfJiJiYmN4nsaDV+B9A1mmqbuDRYvT/AF2PHMq37+jon2xKQAKS4n4A1Lh6mrJtT55gx0zdop2qoj9ans9cdHqRR6XmImJiY3iexVPKDwNRp0VaxpVrm4sz+fs09VqftR+r4dnq6gr4BQABJ+T/AFudG4osRXXtj5c+QuxPV0/Rn2Tt7JleLzREzExMTtMdr0Lw7qX5X4ewc+Z3qvWYmuf1o6KvjEoNkAArHlN4smqurh/BubU09OXXTPXPXFH3z7I70z4t1+jhzQb2ZG036vzdime2uer2R1+xQt27Xeu13btc13K6pqqqqneZmeuZBwAUAfQfG+4f4N1jiKYrxrHksbfpyLvo0eztn2JbwZyb010W9S163vE7VWsSfhNf/T7+5ZdFFNuimiimKaaY2immNoiEEO0fkw0PT6aa83n6hejrm5PNoifCmPvmUrxMHDwbfk8PFs49H2bVuKY+DIAAAYOoaLpmq0TTn4FjI3jbnV0Rzo9U9cIFxFyVUcyvJ0C7Vzo3mcW9Vvv4U1fdPvWWA8137F7Fv12L9qu1dtzza6K42mme6Yda6uOuDrfEGDVl4lumnUbFO9MxG3loj6s+PdKlpiaappqiYmJ2mJ7FHwABk6fnX9N1CxnY1XNu2K4rpn1dk+DGAejtNz7Oqabj51ifzeRbiuPDfs9nUykD5J9UnJ0LI06urerDu70R3UV7z84q96eICFcqefOLwtTjUTtOXfpon/LHpT8YhNVX8r+Tvk6ZixP0KLlyY9cxEf8ALIK3AUAAZWnabmatmUYeDj1371fVTT2R3zPZHin+ByQ3KrVNWo6pFFc9duxb50R/xTMfJv8Ak20O1pvDdvOqojznOjylVe3TFG/ox6tun2pggrz+iHA/xXJ/d0n9EOB/iuT+7pWGAhmh8m2FoesY+pUZ969VYmZiiqmIid6Zjs9aZgDE1XI800jMyd9vI49de/dtTMvOS+eOcjzbgvU7nfaij9qqKfvUMAAoAAkvFHFder4+LpeJNVvTsO3RRTTttNyqmnbnT4d0I0AAACxuT/gSb9VrWtXsx5H6WPYrj6fdXVHd3R29fV19HAHAv5Sqo1fVrU+aUzvYs1R+mnvn9X5+rrtiIiIiIjaI7EH0AAAAAAAAAAAAAAAAAAAAAAAAAAAAAAAAAAAAAAAAAAAAAAAAAAAAAAAAAAAAAAAAAAAAAAAAAAAAAAAAAAAAAAAAAAAAAAAAAAAAAAAAAAAAAAAAAAAAAAAAAAAAAFWcoXA3m03Nb0q1+Zn0sixRH0O+uI7u+Oz1dVdPS8xExMTG8T2Ki4+4HnSLlWq6ZamcGud7tuOnyEz/ACz8PcCCgKAAAALW5OuNJzqKNE1K7vk0R/u92qem5EfVme+Ozvj42E81WrtyxeovWq6qLluqKqaqZ2mmY6phe/B3EdHEmh0ZFW0ZVr83kUx9rvjwnr98diDfAA6snItYeLdyb9UUWrNE111T2REby89azql7WdXydRvzPOv1zVEfZp6oj2RtC1eVHVZweGqcKira5nXOZP8Akp6avjzY9qnAAFByt267tym3bomuuuYppppjeZmeqIcVg8lnDsZedc1rJo3tYs8yxEx0Tc26Z9kfGfAEv4I4Rt8N6dF2/TFWoX6Ym9X18yPsR6u3vn2JQCAAAAAAA4XbVF61Xau0RXbrpmmqmqN4mJ64lzAUDxboM8O8QX8KInyM/nLEz20T1e7pj2NKtjla02m9pGJqVMenj3fJ1T+rVH3TEe9U6gAAuLkqzJv8LXMeqenGyKqYjfqpmIq+cyp1Z3I9emaNVsTPRE2qoj186J+UAsoGv13U6dH0PM1Cr+otTVTHfV1Ux75hBVHKXrs6pxFOFar3x8De3G3VNf1p+72Ic5XLld25VcuVTVXXM1VVT1zM9rioAALK5N+DablNGvalaiY33xLVUfxzHy9/ciPCGgTxFxBZxKonzej85fmOyiOz2ztHtX1bt0WrdNu3TFFFERTTTTG0REdUQg5AAAAAAAAKc5TtBp0zXadQsUc2xnxNUxHVFyPpe/eJ9srjRflE02NR4Qyaoje5izF+j2fS/hmQUeAoAAm3JTlzY4puY8z6OTj1Rt4xMTHwiVxKK5P65t8b6dNPbVXTPtoqheqApnlSyfL8Xza3/wDD49FHv3q/mXMoTjbI864y1O5vvte8n+zEU/cDRAKAMrTMbzzVMTF238tfot7d+9UQD0HpWP5ppGHjbbeRsUW9vVTEMsEAAAAEM5U8jyPCPk9/0+TRR7t6v5VNLR5X8jm4emY2/wBO5cuTHqiI/mlVygAAAAAAlfJ9w/ha/rdVOddp5mNTF3zftvdPyjo39aKMrTdRydJ1Gzn4lfMvWaudTPZPfE+Ex0A9G00xTTFNMRFMRtERHRD61uga3jcQaRZ1DGnaK42ro36bdcddM/8AfVs2SAAAAAAAAAAAAAAAAAAAAAAAAAAAAAAAAAAAAAAAAAAAAAAAAAAAAAAAAAAAAAAAAAAAAAAAAAAAAAAAAAAAAAAAAAAAAAAAAAAAAAAAAAAAAAAAAAAAAAAAAAAAAAAA4XLdF61Vau0U1264mmqmqN4qieuJhzAUvx1wXXw/kzm4VM1adeq6Nt5mzP2Z8O6fZ64e9J5WLYzca5jZNqm7Zu0zTXRVHRMKR4z4Rv8ADOoc63FVzAvTPkbv2f1KvGPj79gjQCgAAlHJ9rk6NxPZorr2x8zazdjs3n6M+yfhMou+xM01RVTMxMTvEx2A9LjA0LP/ACpoWFnTO9V+zTVV/m26fjuz0FO8quoTk8T0YcVehiWKYmO6qr0p+HNQluOLcrz3izU72+8ec1URPfFM82PhDTqAAPsRMzERG8z2PQfDmlU6Lw/h4EREVWrceUmO2uemr4zKk+EsOM/ivTceY3pm/TVVHfFPpT8IegEAAAAAAAAAAGg45xfPODNSt7bzRa8pHR1c2Yq+5Qy/ONL8Y/B2qVzO29iaP2vR+9QagAAsfkf/APFap/kt/OpXCy+R6106tenf+qpj+OZ+4FmoHys6hOPoONg01bTlXt6vGmiN5+M0p4qPlaypucQ4uNE+jZxoq9tVU7/CIQQMBQABcHJXpMYfD1zUa6fzubcnaf1KeiPjzvgnDC0bDjT9FwsOI28hYoon1xEb/FmoAAAAAAAADozcanMwcjFq+jetVW59Uxs7wHmiYmJmJjaY7HxkahRFvUcminqpvVxHvljqAAJDwHEVca6ZE7/pJno/yyvdSHJtam5xvhVf2dNyqej9SqPvXegPOGpZHneqZeTvv5a9Xc3796pl6E1XI800jMyd9vI49de/dtTMvOQACg33BGP5zxnplvbfa95T9mJq+5oUy5Lcfy3GEXP7DHrr+VP8wLmAQAAAAVJyuZHP1/DxoneLWNzvVNVU/wDTCBJVyk5Hl+NcunfeLNFuiP2Yn5zKKqAAD6+LA4R4UtcQ8C59NVNNOTOTM49yfq1U0x0eqd5iQV+Oy/Yu41+5Yv0Tbu26pprpq66Zjrh1gAAk3BHFNfDerxF6qZwcmYpv0/Z7q49Xy3XhRXTcoproqiqmqN6aoneJh5pWhyZcWeUojQM656VMb4ldU9cdtHs6493ZCCyAAAAAAAAAAAAAAAAAAAAAAAAAAAAAAAAAAAAAAAAAAAAAAAAAAAAAAAAAAAAAAAAAAAAAAAAAAAAAAAAAAAAAAAAAAAAAAAAAAAAAAAAAAAAAAAAAAAAAAAAAAAAAAAAGHqmmYusaddwMy3z7N2Np74nsmO6YZgDz3xDoWTw7q9zAyOmI9K3ciOi5RPVP/fa1a7eUTQaNY4cu5FFEec4MTdtzt0zTH0qfdG/riFJKAAAALt5Nb83uCsWmd/zVdyjp/wA0z96T37tNixcvV/Rt0zVPqiN0Q5LKaqeEN56qsmuY9W0N3xbk+acJ6pd32nzaumJ8ao5sfNBQV25Veu13a53qrqmqZ8ZcAUAASzkztxXxrjVdH5u3cq/hmPvXYozk9yKcbjbT5q22rmu37ZomI+Oy80AAAAAAAAAAEI5Vc+Mfhi3iRV6eXfiNu+mn0p+PN96nkx5TdYjUuJvNLVXOtYFPk+jq589NX3R/wocoAALf5J8SbPDeRk1RtN/JnbxppiI+e6oHoDhLTvyXwtp+JMbVxZiuuO6qr0p+MoNwpHlJuzc43zKen83Rbp/gifvXco3lF/8APWo//tf/AOVAIyAoOzHiKsi1TMbxNcRMe11vtNU0VRVTO0xO8SD0uOrGv05WLayKPo3aKa6fVMbu1AAAAAAAAAfH1h6vf810bOyN9vJY9yv3UzIPO+Rc8tk3bu8zz65q3nxl1goAAnHJPY8pxTeuzHRaxapifGaqY+W64FY8j+Pvc1TJmOqLdEe3nTPyhZyDQ8cZHm3Bmp3N9t7PM/amKfvUKuXlTyPI8IeT3/T5FFHu3q/lU0oAALG5IMfnZ2p5O30LdFv9qZn+VXK2uSPH5mhZuTMbeVyeZ64ppj/qkE+AQAAAcbldNu3VcqnammJmfUDz/wAU5HnXFWqXeycq5THqiZiPhDUuy9dqv37l6r6Vyqap9czu61AABd/Jxj+Q4Jw6pjabtVy5P7UxHwiFIPQfC+P5rwvplmY2mMW3M+uaYmfjKCEcqHC3/wCoMOjupy6Y90V/dPs8VZvSl6zbyLFdi9RFy3cpmmumqN4qieiYlQ/F3DtzhvW7mL6VWPX6ePXP1qO71x1T/qDRgKDnZvXMe9Res11W7luqKqK6Z2mmY6phwAXxwdxNb4m0em9VNNOXZ2oyKI7J7Ko8J/GOxIHn3hrX7/Dms2s6zvVR9G9bif0lE9cffHjC+8LNx9RwrOZi3IuWb1MVUVR2wg7wAAAAAAAAAAAAAAAAAAAAAAAAAAAAAAAAAAAAAAAAAAAAAAAAAAAAAAAAAAAAAAAAAAAAAAAAAAAAAAAAAAAAAAAAAAAAAAAAAAAAAAAAAAAAAAAAAAAAfJnaN56gfXGu5Rat1XLldNFFMb1VVTtER60R4h5R9J0fn2MOY1DKjo5tur83TPjV90b+xWGu8V6vxDcnz3JmLO+9Ni36Nun2dvrneQWJxDyoafgRVY0iiM6/1eUneLVM/Or2dHiwOAeNs/U+IL+Hq2T5Wcunex0RFNFVO882Ijvjf3QrF3YmVewcyzl2Kubds1xXRPdMTvCj0kMHRdVsa3pGPqOPPoXqN5p+zV20+yd4ZyAAAADjct03bdVuuN6a4mmqO+JeaV/cXaxRonDWXlTVEXKqJt2Y766o2j3dfsUCAAoA52bNeRft2bVPOuXKoppjvmZ2gF38neNONwVg7xtVd59yfbVO3w2dPKZkeQ4LyKN9pv3Ldv8Ai538qR6dh0adpuNhW/o49qm3E9+0bIRyu5HN0XAxv7TImv8AZpmP5kFTgKAAO/CyrmDnWMuz+ksXKblPrid4eisLLtZ+DYzLFXOtX7cV0z4TG7zcs7kt4mo8nPD+Xc2qiZrxZntjrqo+cx7QWUAgAAAAAANHxbxDb4b0O7lb0zkV+hj0T9aue3bujrn/AFbDVNUw9G0+5nZ12Ldm3HtqnsiI7ZlRnE/EeTxNqtWXe3otU+jYtb9Fun8Z7ZBqK667tyq5cqmquuZmqqZ6Zme1xBQABuuEdHnXOJcTDmnnWuf5S9/kp6Z9/V7V/IHyW6B5jpNer36Nr2b0W9+um3E/fPT7ITxAUtyoWJtcZXK5j9NYt1x7ub/KulV/K9gzGRp2oRHRVRVZqnu2nePnUCtwFAAF3cnWq06nwlj25q3u4f5iuPCPo/wzHulKlG8CcSxw7rkTfq2w8qIt3/1e6r2fKZXjTVFVMVUzE0zG8TE9EoPoAAAAAAONddNuiquuqKaKY3qqqnaIjvkHJoeOL/m3Bmp199nmftTFP3tlpmqYur4s5WHXNyx5Sqimvsr2naZjw3RrlSyPI8H1W9/0+RRR86v5QUwAoAAt7kmx/J8N5N+Y6buVMR6opp++ZTpGOTrH834Jwd42quc+ufbXO3wiEnQVxyv5HNw9Mxt/p3LlyY9URH80quT3lcyOfr+HjRO8Wsbneqaqp/6YQJQAAXbya4/kOCsWvbab1dy5P7Ux8qYUk9A8KY/mvCml2ttp82oqmPGY3n5oNuAAAA1nEmR5pw1qV/faaMW5zfXzZiPjs2aMcomR5vwTnbTtVd5luPbXG/w3BRwCgADnbt1XbtFuiN6q6opiPGXpK1bps2aLVP0aKYpj1Q8/cNY/nXE+mWZjeKsq3zo8IqiZ+D0IgNDxhw3b4l0WvHiIjKtb149c9lXd6p6vdPY3wDzVdtXLF6uzdomi5bqmmqmqNppmOuJcFk8qHC3Mr/2gw7fo1bU5VNMdU9UV+3qn2K2UAAE75NuLPyZmxo+bc2xMmr81VVPRauT90/PbxQR9B6XEN5POLPy5p3mGZc3zsWnbeZ6btHVFXrjqn2T2pkgAAAAAAAAAAAAAAAAAAAAAAAAAAAAAAAAAAAAAAAAAAAAAAAAAAAAAAAAAAAAAAAAAAAAAAAAAAAAAAAAAAAAAAAAAAAAAAAAAAAAAAAAAAAAAAAAAA0HFHF+BwvZo85t3b1+9EzatURtztu+rqiPj4Ko4g431niGarV295viz0eb2ZmKZj9aeur29HgsflL0f8pcL1ZNFO97Bq8rE9vM6qo920/8ACpYABQABMOAOL44fzZws2ufyfk1bzP8AZV9XO9XVE+/sXNRXTcoproqiqiqN6aqZ3iY74eaUm4Z461ThymMeNsrD3/QXJ+j/AJZ7PjHggvIQ/A5TuHMuiPOLt7Cr7abtuao38Jp3+OzMucoPC1uiap1WmrwptVzM/wAIJIxdR1PD0nCrzM6/TZs0ddVXbPdEds+EIJq3K3i26aqNIwa71fZdyPRpj2R0z8Feaxrupa9lecajk1Xao+jT1U0R3RHVANjxfxZkcUahFe02sOzMxYtb/wAU+M/BHgUAAEw5NNFnU+JqcuunexgR5WqZ+31UR7+n/hRCmmquqKaaZqqqnaIiN5mV78F8PRw7w/ax7lMedXvzuRP609nsjo94JAqzlfv87UNNxv7O1XX+1MR/KtNTPKlf8txhNv8AsMeij51fzIIaAoAAOdq7csXqL1quqi5bqiqmqmdppmOqYcAFycGcfY+t2reDqVymzqMdETPRTf8AGO6rw93dE0eaInad4S/QeUnWNIopsZe2oY9PREXatq6Y8Kvx3QXQIjp3KZw5m0xF+9dwrk/VvUTt76d49+zeWeItEyIibWr4Ve/ZGRTv7twbIa+7r+jWImburYVG3XzsiiPvaXUOUjhvBpmKMuvLrj6mPRM/Gdo+IJU0fEXF2l8N2Z85uxcyZjejGtzvXV3b90eM/FXmt8qWq58VWdNtU4FqejnxPPuTHr6o9ke1Cbl25euVXbtdVyuqd6qqp3mZ8ZBteI+J9Q4lzPLZdfNtUforFM+hbj758WnBQAAbzhHh25xJrdvF2mMej08iuPq0d3rnqj/RqsPEv5+XaxMW3N29eqimiiO2V7cKcN2OGdHoxaNq79fp5F2Pr1eHhHVH+oNxatUWbVFq1TFFFFMU00x1REdUOYICNcoGlflXhLKiinnXcbbIt/8AD1/wzUkr5MRVExMRMT0TEg80Dd8X6FVw9xDfw4pmLFU+UsTPbRPVHs6Y9jSKAACf8C8f/kymjStYuTOJHRZvz0za/Vn9X5erqgAD0rbuW71um7arpuW643pqpneKo74lzUHoHF+scO1c3Dv8/Hmd6se76VE+ru9ixNK5VdGy6Yp1G1dwbnbO3lKPfHT8EE4Gqx+J9ByqedZ1jCnwm/TTPumd3dXruj243r1XCojbferIoj7wZ4jebygcM4MTvqVN+qPq2KZr39sdHxRPV+Vu7XFVvR8CLUT1Xcmd6v2Y6PjILF1HU8LScSrLz8iixZp+tVPXPdEds+EKj4w4+yeIOdhYUVY2n9sT9O9/m7o8Pf4RrUtWz9YyZydQyrmRc7JrnopjuiOqI9TDUXzwNj+bcF6ZRttzrU1/tVTV96M8r+RzcDTcbf8ASXa7n7MRH8ydaTj+aaPhY3V5HHt0e6mIVjyuZHP13Cxt/wBHjc/9qqY/lQQABQBztWqr16i1R9KuqKY9cg9A8NY/mnDOmWNtppxbfOjxmmJn47to4W7dNq1RbojamimKYjwhzQUjyk5Hl+NcunfeLNNu3H7MTPxmUVbbinI864q1S9vvE5VyInviJmI+ENSoAA5UU1V100UxvVVO0R4vSWPZpx8e1Yp+jboiiPVEbPPvDuP51xJptjboryrcT6udG/wehkAAAABBeVrI8nw3jWInabuVEz4xFNX3zCdKx5YMje7peNHZTcrn282I+UgrUBQABKOTnH8442wpmN4tRXcn2UTt8ZheCo+SXH8pxFlZExvFrFmI9c1U/dErcQAAdeRj2srHuY9+3Fy1dpmiuirqqieuFC8V8PXeG9bu4dW9Vir07FyfrUT98dU+pfyP8Z8NUcS6LVZoiIy7O9ePXPf20+qfwnsBQ45XLddm5VauUzRXRM01U1RtMTHXEuKgADL0vUsnSNSs5+JXzL1mreO6Y7YnwmOhfmha1ja/pNnUMWfRrjaujfebdUddM/8Afc88JPwNxTVw3q0U36p8wyZim9T18yeyuPV2+HsBeI401U10RXRVFVNUbxMTvEw5IAAAAAAAAAAAAAAAAAAAAAAAAAAAAAAAAAAAAAAAAAAAAAAAAAAAAAAAAAAAAAAAAAAAAAAAAAAAAAAAAAAAAAAAAAAAAAAAAAAAAAAAAAAAAAAAAOFy3RetV2rlMVUV0zTVTPVMT1w8+8Q6Pc0LXMrT64na3X+bqn61E9NM+56FQblM4ZnVNMp1XFo52Th0zz4jrrtdc+7r9W4KgAUAAAAAAAAAAASfgzg+/wAS5sXLsVW9PtVfnbvVNU/Zp8fl7gbrkz4UnMyo13Nt/wC72Kv93pqj6dcfW9UfP1LXddixaxce3j2LdNu1bpimiimNopiOqHYgKG45yPOeNNTub77XYo/Zpin7l8vOWq5Hner5mTvv5bIrub+uqZBiAKAAAAAAAAAAAAAADnbt13rtNq1RVXXXMU000xvNUz1REOeJiZGdlW8XFs13r1ydqKKI3mZXFwXwLY4ft05udFF7Uao6J66bMd1Pj3z7vEPvAvBdHD2N57mU016jep6e2LNP2Y8e+fZ65eCAAAACMcd8Mf7R6NM2KY89xd67M/a76Pb84hR9VNVFU01UzTVTO0xMbTEvS6tuUXgmb03Nd0u1vX9LKs0R199cePf7+8FYAKAAAAAAAADJ03H871TExtt/LXqLe3fvVEMZveCcfzrjLS7e2+16Ln7MTV9wL7UlylZHl+NcqjfeLNFu3H7MT85ldrz7xVkedcV6pd33jzqumJ8InaPhCDUgKDa8MY/nXFGmWZjeJyrcz6oqiZ+ENUlPJvj+X41w6tt4s03Lk/szEfGYBd7jcrpt26rlU7U0xMz6nJrOJMjzXhrU7++00Ytzmz482Yj4oPP167Vfv3L1X0rlU1T65nd1goAAk3J5j+ccbYG8b02+fcnw2onb47LyVByTY/lOJsi/MdFnFq29c1Ux8t1voAAAACneVbI8rxXbtR1WcWimfXM1T98LiUTx9kec8a6jVvvFFdNuP+GmI+cSCOgKAALP5H8fbH1TJmPpVW7cT6oqmfnCyUK5KsfyPCdd2Y6b+TXVv4REU/dKaoAAAAKt5UOFvIXvy/h2/wA3cmKcqmI+jV1RX7eqfHbvVy9J5ONZzMW7jZFuLlm7TNFdE9UxPWoPifQL3DmtXcG5vVb+lZuT9eieqfX2T4wDUAKAALR5MuLPLW40DOuenRG+LXVPXT20ezrjw37oWO812b13Hv0X7NdVu5bqiqiumdppmOqV68H8S2uJdGpvzMU5VrajItx2Vd8eE/jHYg34Ou/epx8e5eriZpt0TVMR17RG4OwQb+lrQP7nqP7u3/1snTuUzRdT1HHwbOLn03Mi5Fuma7dEUxMz27VAmAjOuce6Tw/qv5OzLOXVcimmqa7dFM0xE+uqJ+CS01U10xVTMTTVG8THbAPoi+pcf6RpeuTpF21lXL9NdNE1WqKZoiatujeaont7koAAAAAAAAAAAAAAAAAAAAAAAAAAAAAAAAAAAAAAAAAAAAAAAAAAAAAAAAAAAAAAAAAAAAAAAAAAAAAAAAAAAAAAAAAAAAAAAAAAAAAAAAAfH0BT/H/BNWj5FeqadamcC7O9dFMfoKp/lns7uruQd6WropuUVUV0xVRVG1VNUbxMd0q04r5MaufXm8PxExPTViVTtt/kmflP+gK0HbkY1/Ev1WMmzXZu0TtVRcpmmqPZLqUAAAAAABudF4T1rXqqZwsOvyMz+nuejbj2z1+zdZnDfJtpmjzRk58xn5UdMc6na3RPhT2+ufdAIbwhyfZeuVUZuoRXi6f1x2V3v8vdHj7lv4mHj4GLbxcSzRZs242ooojaIdr6gAAxdSyPM9Ly8rfbyNiu5v6qZl5xX1xvkea8Ganc323s+T/amKfvUKAAoMzF0nPzcHIzcbGrvWMWYi7VR0zTvvtO3Xt0T09jDW7yS4/k+HMq/MbTdypiPGIpp++ZBUQufiPk40vWaqsjC2wMqemZop/N1z409nrj4qz1rhDW9BqqnLw6qrMf19r07e3fv2e3YGkAAAAAABvNI4O17WppnFwLlFqf669HMo27956/ZuDRt5w9wlqvEl2PNLPMx4navIuRtRT6u+fCFg6DyW6dgzTe1a759ejp8nG9NqPvq+EeCcWrVuzbptWrdNuimNqaaY2iI8IQabhvhLTeGcfbGo8pkVxtcyK49Krwjujw+beAAAAAAAAACuuM+TiMqq5qWhW6abs71XcWOiK/Gnunw6vvq+7auWbtVq7RVbuUTtVTVG0xPdMPSrQ8RcH6TxJRzsq1NrJiNqci10Vx4T3x6/gChRK9c5Otc0iarlmz5/jx1V2Imaojxp6/duitVM01TTVExVE7TE9cKPgAAAAACY8luP5fjCm5/YY9dz5U/wAzQaVw/q2tVxTp+BdvRvtNcRtRHrqnoWrwJwXe4Z8vlZt6i5lX6Yo5tuZmminffr7Z6vcCX11026Kq6p2ppjeZ8Hm2/dqv37l6r6Vyqap9czu9B8QX/NuHdSv9tvFuTHr5s7PPCAAoJ7ySY/P1/MyJjeLWNzfVNVUf9MoEtHkgx+bianlTH07lu3E+qJmf+aAWOjPKJkeb8E5207VXOZbj21xv8N0mQXlZyPJ8NY9iJ6buVG/qimr79kFQgKAALN5H8f0dUyZjrm3RTP7Uz9yy0H5KMfyXC969MdN7KqnfwimmPnunCAAAAA8663ked67n5O+/lcm5XHqmqXoXKvRjYl6/O21q3VXO/hG7zbMzVMzMzMz0zMg+AKAAL34Dx/NuCtNo22mq3Nz9qqavvSFhaNj+aaJg4223ksa3R7qYhmoAAAACOcb8M08R6LVTapjzzH3rx6u+e2n2/PZIwHmmqmqiuaK6ZpqpnaYmNpiXFYXKdwt5rlfl3Dtz5G/O2TTTH0a+yr1T2+PrV6oAANvwzxBf4b1i3m2t6rc+jetb/To7Y9fbDUAPSOHmWNQw7WXi3IuWb1MVUVR2w71Rcm/FsaXlfkfPuxTiX6t7VdU9Fqvu8In5+uVuoIfyof8Ak25/69v5pDof/wAg07/8W1/yQj3Kh/5Nuf8Ar2/mkOh//INO/wDxbX/JAK84q0mNb5R7un/Xu4Mzb/zxRM0/GISDg3iSj/YWvIzKp8ppVFVu7TPRMxTG9Pw2j1ww7v8A9aLH/wCLP/JU0HFWk5+HxdkaNgTNGNr9y3XNMR0b87efdVvPqkGsu4N3zbStby+nJ1XUa7kzP2Yqp2+M1fBeCu+ULFtYNPDOJYp5tqxf8nRHdEcyIWIAAAAAAAAAAAAAAAAAAAAAAAAAAAAAAAAAAAAAAAAAAAAAAAAAAAAAAAAAAAAAAAAAAAAAAAAAAAAAAAAAAAAAAAAAAAAAAAAAAAAAAAAAAAADA1TQ9M1q15PUcK1kREbRVVG1VPqqjpj2IbqPJJp96Zr07UL2NM/Uu0xcp9nVPzWCAp3K5KdfszPkLuJkU9nNuTTPumPvYFXJzxXTM7aXFUR2xkW+n+JeICjaeTriurb/AOF82J7ZyLfR/Ezsbkr4ivTHlasTHjt592Zn+GJXIArbC5ILUTFWfq1dUdtFi1FP8UzPySnTOBuHdKmKrWn0Xrkf1mR+cn3T0R7ISAB8iNo2jqfQAAAABDuVLI8jwfNvf9PkUW/nV/KphaXK/kc3B0zG3+ndrubf5YiP5lWqAAC8eTrH834Jwd42qu8+5Ptrnb4RCjnoXhvH804a02xttNGLb53r5sTPx3QbN8fQGi1Pgzh7VpmvI021Tcn+ss/m6vX0dftRvL5ItNuTM4ep5NjwuUU3Ij3bLBAVXd5IM2JnyWrWK47Odamn75dVPJFqs1enqOHEd8RVP3LZAVhY5H7s7TkazRT3xbx5n4zVDbYfJPolmYqycnLyZjrjnRRTPujf4pyA1OncLaFpUxVh6Zj266equqnn1x/xVby2wAAAAAAAAAAAAAAANdqXD+kaxH/xDT7F+rq5807V/tR0/FsQEHzeSjQ78zVi5GVizPVEVRXTHsmN/i1F/kfvRM+b6zRVHZFyxNPyqlZ4CpquSLVYq9HUcOae+Yqifk7rfJBlzV+d1izTHfTZmr74WmAr/F5ItMt7Tl6llXvC3TTbiffukOn8D8N6bMVWtMtXK4+vf3uT7qt4j2Q34D5TTTRTFNNMU0xG0REbRD6APkxFUTTVETE9cS6/Ncf+wt/sQ7QHV5rj/wBhb/Yg81x/7C3+xDtAdXmuP/YW/wBiHOi3RbjaiimmOvamNnIAdV7HsZERF+zbuxHTEV0xVt73aAxfyZp/9xxv3VP4H5M0/wDuON+6p/BlAMX8maf/AHHG/dU/gfkzT/7jjfuqfwZQDhas2rFHMs26LdEfVopiIcwAAAAB8qpiqmaaoiaZjaYmOiWN+TNP/uON+6p/BlAMX8maf/ccb91T+B+TNP8A7jjfuqfwZQDF/Jmn/wBxxv3VP4H5M0/+4437qn8GUAAAAAAAAA+VU010zTVTFVMxtMTG8SxvyZp/9xxv3VP4MoBi/kzT/wC4437qn8D8maf/AHHG/dU/gygGL+TNP/uON+6p/A/Jmn/3HG/dU/gygGDOiaRMzM6XhTM9vm9H4M4AcLtm1fo5l63Rcp6+bXTEx8XKmmKaYppiIpiNoiI6IfQHX5vZ8v5fyNvysRt5Tmxzve+1WbVdym5Vboqro+jVNMTNPqlzAdd3Hs35pm9Zt3Jpnenn0xO3qdgAAAAAAAAAAAAAAAAAAAAAAAAAAAAAAAAAAAAAAAAAAAAAAAAAAAAAAAAAAAAAAAAAAAAAAAAAAAAAAAAAAAAAAAAAAAAAAAAAAAAAAAAAAAAAAAAAAAAAAAAAAAqblcyOfruFjb/o8bn/ALVUx/KgCV8pWR5fjXKo33izRbtx+zE/OUUUAAdlm1Vfv27NP0rlUUx65nZ6St0U27dNumNqaYiI9Tz/AMLY/nXFWl2uycq3VPqiYmfhD0EgAAAAAAAAAAAAAAAAAAAAAAAAAAAAAAAAAAAAAAAAAAAAAAAAAAAAAAAAAAAAAAAAAAAAAAAAAAAAAAAAAAAAAAAAAAAAAAAAAAAAAAAAAAAAAAAAAAAAAAAAAAAAAAAAAAAAAAAAAAAAAAAAAAAAAAAAAAAAAAAAAAAAAAAAAAAAAAAAAAAAAAAAAAAAAAAAAAAAAAAAA+VVRTTNVU7REbzIPP8AxZkedcV6pd33jzqumJ8KZ2j5NQ7cm9ORlXb9XXcrmufbO7qUAASnk3x/L8a4lW28Wablc/szEfGYXeqTkkx+fxBmZExvFrF5vqmqqPwlbaAAAAAAAAAAAAAAAAAAAAAAAAAAAAAAAAAAAAAAAAAAAAAAAAAAAAAAAAAAAAAAAAAAAAAAAAAAAAAAAAAAAAAAAAAAAAAAAAAAAAAAAAAAAAAAAAAAAAAAAAAAAAAAAAAAAAAAAAAAAAAAAAAAAAAAAAAAAAAAAAAAAAAAAAAAAAAAAAAAAAAAAAAAAAAAAAAAAAAAAAA679qL9i5ZqmaYuUzTM09cbxt0OwBAf6I9I/xDN/g/A/oj0j/EM3+D8E+AQH+iPSP8Qzf4PwP6I9I/xDN/g/BPgGg4Y4QweFoyJxL169Xkc3nVXZjoiN9ojaPGW/AAAAAAAAAAAAAAAAAAAAAAAAAAAAAAAAAAAAAAAAAAAAAAAAAAAAAAAAAAAAAAAAAAAAAAAAAAAAAAAAAAAAAAAAAAAAAAAAAAAAAAAAAAAAAAAAAAAAAAAAAAAAAAAAAAAAAAAAAAAAAAAAAAAAAAAAAAAAAAAAAAAAAAAAAAAAAAAAAAAAAAAAAAAAAAAAAAAAAAAAAAAAAAAAAAAAAAAAAAAAAAAAAAAAAAAAAAAAAAAAAAAAAAAAAAAAAAAAAAAAAAAAAAAAAAAAAAAAAAAAAAAAAAAAAAAAAAAAAAAAAAAAAAAAAAAAAAAAAAAAAAAAAAAAAAAAAAAAAAAAAAAAAAAAAAAAAAAAAAAAAAAAAAAAAAAAAAAAAAAAAAAAAAAAAAAAAAAAAAAAAAAAAAAAAAAAAAAAAAAAAAAAAAAAAAAAAAAAAAAAAAAAAAAAAAAAAAAAAAAAAAAAAAAAAAAAAAAAAAAAAAAAAAAAAAAAAAAAAAAAAAAAAAAAAAAAAAAAAAAAAAAAAAAAAAAAAAAAAAAAAAAAAAAAAAAAAAAAAAAAAAAAAAAAAAAAAAAAAAAAAAAAAAAAAAAAAAAAAAAAAAAAAAAAAAAAAAAAAAAAAAAAAAAAAAAAAAAAAAAAAAAAAAAAAAAAAAAAAAAAAAAAAAAAAAAAAAAAAAAAAAAAAAAAAAAAAAAAAAAAAAAAAAAAAAAAAAAAAAAAAAAAAAAAAAAAAAAAAAAAAAAAAAAAAAAAAAAAAAAAAAAAAAAAAAAAAAAAAAAAAAAAAAAAAAAAAAAAAAAAAAAAAAAAAAAAAAAAAAAAAAAAAAAAAAAAAAAAAAAAAAAAAAAAAAAAAAAAAAAAAAAAAAAAAAAAAAAAAAAAAAAAAAAAAAAAAAAAAAAAAAAAAAAAAAAAAAAAAAAAAAAAAAAAAAAAAAAAAAAAAAAAAAAAAAAAAAAAAAAAAAAAAAAAAAAAAAAAAAAAAAAAAAAAAAAAAAAAAAAAAAAAAAAAAAAAAAAAAAAAAAAAAAAAAAAAAAAAAAAAAAAAAAAAAAAAAAAAAAAAAAAAAAAAAAAAAAAAAAAAAAAAAAAAAAAAAAAAAAAAAAAAAAAAAAAAAAAAAAAAAAAAAAAAAAAAAAAAAAAAAAAAAAAAAAAAAAAAAAAAAAAAAAAAAAAAAAAAAAAAAAAAAAAAAAAAAAAAAAAAAAAAAAAAAAAAAAAAAAAAAAAAAAAAAAAAAAAAAAAAAAAAAAAAAAAAAAAAAAAAAAAAAAAAAAAAAAAAAAAAAAAAAAAAAAAAAAAAAAAAAAAAAAAAAAAAAAAAAAAAAAAAAAAAAAAAAAAAAAAAAAAAAAAAAAAAAAAAAAAAAAAAAAAAAAAAAAAAAAAAAAAAAAAAAAAAAAAAAAAAAAAAAAAAAAAAAAAAAAAAAAAAAAAAAAAAAAAAAAAAAAAAAAAAAAAAAAAAAAAAAAAAAAAAAAAAAAAAAAAAAAAAAAAAAAAAAAAAAAAAAAAAAAAAAAAAAAAAAAAAAAAAAAAAAAAAAAAAAAAAAAAAAAAAAAAAAAAAAAAAAAAAAAAAAAAAAAAAAAAAAAAAAAAAAAAAAAAAAAAAAAAAAAAAAAAAAAAAAAAAAAAAAAAAAAAAAAAAAAAAAAAAAAAAAAAAAAAAAAAAAAAAAAAAAAAAAAAAAAAAAAAAAAAAAAAAAAAAAAAAAAAAAAAAAAAAAAAAAAAAAAAAAAAAAAAAAAAAAAAAAAAAAAAAAAAAAAAAAAAAAAAAAAAAAAAAAAAAAAAAAAAAAAAAAAAAAAAAAAAAAAAAAAAAAAAAAAAAAAAAAAAAAAAAAAAAAAAAAAAAAAAAAAAAAAAAAAAAAAAAAAAAAAAAAAAAAAAAAAAAAAAAAAAAAAAAAAAAAAAAAAAAAAAAAAAAAAAAAAAAAAAAAAAAAAAAAAAAAAAAAAAAAAAAAAAAAAAAAAAAAAAAAAAAAAAAAAAAAAAAAAAAAAAAAAAAAAAAAAAAAAAAAAAAAAAAAAAAAAAAAAAAAAAAAAAAAAAAAAAAAAAAAAAAAAAAAAAAAAAAAAAAAAAAAAAAAAAAAAAAAAAAAAAAAAAAAAAAAAAAAAAAAAAAAAAAAAAAAAAAAAAAAAAAAAAAAAAAAAAAAAAAAAAAAAAAAAAAAAAAAAAAAAAAAAAAAAAAAAAAAAAAAAAAAAAAAAAAAAAAAAAAAAAAAAAAAAAAAH/9k=;imageBorder=#000000;strokeWidth=4;sketch=1;curveFitting=1;jiggle=2;" vertex="1" parent="1">
                    <mxGeometry x="470" y="277.37" width="310" height="145.26" as="geometry"/>
                </mxCell>
            </root>
        </mxGraphModel>
    </diagram>
</mxfile>